<svg xmlns="http://www.w3.org/2000/svg" viewBox="0 0 238.72 566.65"><title>spaceship</title><g id="b00cfdd1-cfdc-4bc3-a832-261dc3b30714" data-name="Layer 2"><g id="a51b0840-bd43-4e47-b1b9-dcb36a3ff8c4" data-name="Layer 1"><path d="M77.74,397.31l-.1-38.73a97.38,97.38,0,0,0-26.75-1.31h0l-1.09.1h0l-1.08.11h0l-1.09.14h0l-1.09.13h0l-1.09.16h0l-1.09.16h0l-1.09.17h0l-2.36.43v38.71A91.19,91.19,0,0,1,77.74,397.31Z" style="fill:#fff"/><path d="M77.63,356.35l-.1-37.42a97.83,97.83,0,0,0-36.62.1v37.41A91.19,91.19,0,0,1,77.63,356.35Z" style="fill:#fff"/><path d="M78,495.25l0-6.3a97.78,97.78,0,0,0-37.08,0v6.3A91.27,91.27,0,0,1,78,495.25Z" style="fill:#fff"/><path d="M76,156.43,67.27,130a95.81,95.81,0,0,0-16,0L42,156.71A64.72,64.72,0,0,1,76,156.43ZM65.46,135.12A1.14,1.14,0,1,1,64.32,134,1.14,1.14,0,0,1,65.46,135.12Zm-1.72-4.26A1.15,1.15,0,1,1,62.6,132,1.15,1.15,0,0,1,63.74,130.86ZM62,135.12A1.14,1.14,0,1,1,60.87,134,1.14,1.14,0,0,1,62,135.12ZM59.15,132a1.15,1.15,0,1,1,1.14,1.14A1.15,1.15,0,0,1,59.15,132Z" style="fill:#fff"/><path d="M78,486.72l-.23-87.17a97.54,97.54,0,0,0-36.84.06v87.13A91.3,91.3,0,0,1,78,486.72Z" style="fill:#fff"/><path d="M77.53,316.69l-.1-37.41a97.51,97.51,0,0,0-36.52.12v37.4A91.41,91.41,0,0,1,77.53,316.69Z" style="fill:#fff"/><path d="M77.41,274.68l-.1-38.52a97.71,97.71,0,0,0-36.4.14v38.51A91.37,91.37,0,0,1,77.41,274.68Z" style="fill:#fff"/><path d="M78,503.78l0-6.3a97.68,97.68,0,0,0-37.1,0v6.29A91.37,91.37,0,0,1,78,503.78Z" style="fill:#fff"/><path d="M77.19,193.16l-.09-33.24a69.32,69.32,0,0,0-36.19.25v33.16A91.19,91.19,0,0,1,77.19,193.16Z" style="fill:#fff"/><path d="M77.3,233.92l-.1-38.52a97.76,97.76,0,0,0-36.29.16v38.51A91.37,91.37,0,0,1,77.3,233.92Z" style="fill:#fff"/><path d="M40.91,277v.13a91.75,91.75,0,0,1,18.59-1.92A98.45,98.45,0,0,0,40.91,277Z" style="fill:#fff"/><path d="M66.48,127.6l-4.75-14.43a2.41,2.41,0,0,0-4.56,0l-5.05,14.5A90.59,90.59,0,0,1,66.48,127.6Z" style="fill:#fff"/><path d="M77.42,277v-.12a98.7,98.7,0,0,0-17.92-1.67A92.22,92.22,0,0,1,77.42,277Z" style="fill:#fff"/><path d="M71,532.44l-1.33,19.48,2.49-.09Z" style="fill:#fff"/><path d="M50.9,552l-1.32-19.52-1.17,19.44Z" style="fill:#fff"/><path d="M78.07,551.52l-6.61-19.17a.23.23,0,0,0-.44.09l1.16,19.39Q75.1,551.69,78.07,551.52Z" style="fill:#fff"/><path d="M78.09,527.69v-4.61a97.64,97.64,0,0,0-37.17,0v4.61A77.42,77.42,0,0,1,78.09,527.69Z" style="fill:#fff"/><path d="M78.09,551.6l0-.08q-3,.18-5.89.31v0l-2.49.09v0q-9.59.35-18.79.08h0l-2.49-.08h0c-2-.08-3.95-.17-5.91-.29h0c-2.23-.14-4.45-.29-6.65-.48.13,1,1,4.25,6.76,4.25H76.54s6.46,0,6.76-4.23c-1.76.13-3.5.24-5.23.35Z" style="fill:#fff"/><path d="M78.09,527.69a77.42,77.42,0,0,0-37.18,0l-8.34,23.18c1.09.11,2.19.19,3.28.28,2.2.19,4.42.34,6.65.48l6.63-19.24a.23.23,0,0,1,.45.09L50.9,552q9.21.25,18.79-.08L71,532.44a.23.23,0,0,1,.44-.09l6.61,19.17c1.73-.11,3.47-.22,5.23-.35l3.7-.3Z" style="fill:#fff"/><path d="M49.58,532.48a.23.23,0,0,0-.45-.09L42.5,551.63c2,.12,3.93.21,5.91.29Z" style="fill:#fff"/><path d="M78.08,520.84l0-6.3a97.74,97.74,0,0,0-37.15,0v6.3A91.43,91.43,0,0,1,78.08,520.84Z" style="fill:#fff"/><path d="M78.05,512.31V506a97.84,97.84,0,0,0-37.13,0v6.3A91.29,91.29,0,0,1,78.05,512.31Z" style="fill:#fff"/><path d="M40.07,565.15a129.93,129.93,0,0,0,38.28,0L75.8,555.4H42.61Z" style="fill:#fff"/><path d="M77.1,159.92v-.07L76,156.43a64.72,64.72,0,0,0-34,.28l-1.1,3.14v.32A69.32,69.32,0,0,1,77.1,159.92Z" style="fill:#fff"/><path d="M67.27,130l-.79-2.39a90.59,90.59,0,0,0-14.36,0l-.83,2.4A95.81,95.81,0,0,1,67.27,130Z" style="fill:#fff"/><path d="M77.31,236.16v-2.24a91.37,91.37,0,0,0-36.39.15v2.23A97.71,97.71,0,0,1,77.31,236.16Z" style="fill:#fff"/><path d="M77.2,195.4v-2.24a91.19,91.19,0,0,0-36.28.17v2.23A97.76,97.76,0,0,1,77.2,195.4Z" style="fill:#fff"/><path d="M77.42,276.92v-2.24a91.37,91.37,0,0,0-36.5.13V277a97.21,97.21,0,0,1,36.51-.12Z" style="fill:#fff"/><path d="M77.43,279.28V277a90.78,90.78,0,0,0-36.51.13v2.23A97.51,97.51,0,0,1,77.43,279.28Z" style="fill:#fff"/><path d="M77.53,318.93v-2.24a91.41,91.41,0,0,0-36.62.11V319A97.83,97.83,0,0,1,77.53,318.93Z" style="fill:#fff"/><path d="M77.63,356.35v2.23a97.38,97.38,0,0,0-26.75-1.31l-1.09.1-1.08.11-1.09.14-1.09.13-1.09.16-1.09.16-1.09.17-2.36.43v-2.23A91.19,91.19,0,0,1,77.63,356.35Z" style="fill:#fff"/><path d="M77.75,399.55v-2.24a91.19,91.19,0,0,0-36.83.07v2.23A97.54,97.54,0,0,1,77.75,399.55Z" style="fill:#fff"/><path d="M78.08,523.08v-2.24a91.43,91.43,0,0,0-37.17,0v2.23A97.64,97.64,0,0,1,78.08,523.08Z" style="fill:#fff"/><path d="M78,489v-2.23a91.3,91.3,0,0,0-37.07,0V489A97.78,97.78,0,0,1,78,489Z" style="fill:#fff"/><path d="M78,497.58v-2.23a91.22,91.22,0,0,0-37.09,0v2.23A97.68,97.68,0,0,1,78,497.58Z" style="fill:#fff"/><path d="M78,506v-2.23a91.37,91.37,0,0,0-37.12,0V506A97.84,97.84,0,0,1,78,506Z" style="fill:#fff"/><path d="M78.06,514.54v-2.23a91.29,91.29,0,0,0-37.14,0v2.23A97.74,97.74,0,0,1,78.06,514.54Z" style="fill:#fff"/><path d="M61.44,132a1.15,1.15,0,1,0-2.29,0,1.15,1.15,0,0,0,2.29,0Z" style="fill:#fff"/><path d="M59.73,135.12A1.14,1.14,0,1,0,60.87,134,1.14,1.14,0,0,0,59.73,135.12Z" style="fill:#fff"/><path d="M63.74,133.15A1.15,1.15,0,1,0,62.6,132,1.14,1.14,0,0,0,63.74,133.15Z" style="fill:#fff"/><path d="M63.18,135.12A1.14,1.14,0,1,0,64.32,134,1.14,1.14,0,0,0,63.18,135.12Z" style="fill:#fff"/><line x1="48.37" y1="167.04" x2="48.37" y2="177.78" style="fill:none;stroke:#03233a;stroke-miterlimit:10;stroke-width:0.5px"/><line x1="49.46" y1="167.04" x2="49.46" y2="177.78" style="fill:none;stroke:#03233a;stroke-miterlimit:10;stroke-width:0.5px"/><line x1="50.55" y1="167.04" x2="50.55" y2="177.78" style="fill:none;stroke:#03233a;stroke-miterlimit:10;stroke-width:0.5px"/><line x1="51.64" y1="167.04" x2="51.64" y2="177.78" style="fill:none;stroke:#03233a;stroke-miterlimit:10;stroke-width:0.5px"/><line x1="52.73" y1="167.04" x2="52.73" y2="177.78" style="fill:none;stroke:#03233a;stroke-miterlimit:10;stroke-width:0.5px"/><line x1="53.82" y1="167.04" x2="53.82" y2="177.78" style="fill:none;stroke:#03233a;stroke-miterlimit:10;stroke-width:0.5px"/><line x1="54.91" y1="167.04" x2="54.91" y2="177.78" style="fill:none;stroke:#03233a;stroke-miterlimit:10;stroke-width:0.5px"/><line x1="56" y1="167.04" x2="56" y2="177.78" style="fill:none;stroke:#03233a;stroke-miterlimit:10;stroke-width:0.5px"/><line x1="57.08" y1="167.04" x2="57.08" y2="177.78" style="fill:none;stroke:#03233a;stroke-miterlimit:10;stroke-width:0.5px"/><line x1="58.17" y1="167.04" x2="58.17" y2="177.78" style="fill:none;stroke:#03233a;stroke-miterlimit:10;stroke-width:0.5px"/><path d="M77.57,397.15l-.11-38.73a97.3,97.3,0,0,0-26.74-1.31v0l-1.09.1v0l-1.09.11v0l-1.09.14v0l-1.09.13v0l-1.09.16v0l-1.09.16v0l-1.09.17v0c-.78.14-1.57.27-2.35.43v38.71A91.19,91.19,0,0,1,77.57,397.15Z" style="fill:none;stroke:#03233a;stroke-miterlimit:10;stroke-width:0.5px"/><path d="M77.46,356.19l-.1-37.42a97.83,97.83,0,0,0-36.62.1v37.41A91.19,91.19,0,0,1,77.46,356.19Z" style="fill:none;stroke:#03233a;stroke-miterlimit:10;stroke-width:0.5px"/><path d="M77.83,495.09l0-6.3a97.53,97.53,0,0,0-37.07,0v6.3A91.22,91.22,0,0,1,77.83,495.09Z" style="fill:none;stroke:#03233a;stroke-miterlimit:10;stroke-width:0.5px"/><path d="M75.8,156.27l-8.71-26.44a95.81,95.81,0,0,0-16,0l-9.28,26.68A64.62,64.62,0,0,1,75.8,156.27Z" style="fill:none;stroke:#03233a;stroke-miterlimit:10;stroke-width:0.5px"/><path d="M77.81,486.56l-.24-87.17a97.49,97.49,0,0,0-36.83.06v87.13A91.3,91.3,0,0,1,77.81,486.56Z" style="fill:none;stroke:#03233a;stroke-miterlimit:10;stroke-width:0.5px"/><path d="M77.35,316.53l-.1-37.41a97.46,97.46,0,0,0-36.51.12v37.4A91.37,91.37,0,0,1,77.35,316.53Z" style="fill:none;stroke:#03233a;stroke-miterlimit:10;stroke-width:0.5px"/><path d="M77.24,274.52,77.13,236a97.66,97.66,0,0,0-36.39.14v38.51A91.37,91.37,0,0,1,77.24,274.52Z" style="fill:none;stroke:#03233a;stroke-miterlimit:10;stroke-width:0.5px"/><path d="M77.85,503.62v-6.3a97.68,97.68,0,0,0-37.1,0v6.29A91.32,91.32,0,0,1,77.85,503.62Z" style="fill:none;stroke:#03233a;stroke-miterlimit:10;stroke-width:0.5px"/><path d="M77,193l-.09-33.24a69.31,69.31,0,0,0-36.19.25v33.16A91.19,91.19,0,0,1,77,193Z" style="fill:none;stroke:#03233a;stroke-miterlimit:10;stroke-width:0.5px"/><path d="M77.13,233.76,77,195.24a97.71,97.71,0,0,0-36.28.16v38.51A91.37,91.37,0,0,1,77.13,233.76Z" style="fill:none;stroke:#03233a;stroke-miterlimit:10;stroke-width:0.5px"/><path d="M40.74,276.88V277a91.6,91.6,0,0,1,18.59-1.92A98.29,98.29,0,0,0,40.74,276.88Z" style="fill:none;stroke:#03233a;stroke-miterlimit:10;stroke-width:0.5px"/><path d="M66.31,127.44,61.55,113A2.41,2.41,0,0,0,57,113l-5,14.5A89.41,89.41,0,0,1,66.31,127.44Z" style="fill:none;stroke:#03233a;stroke-miterlimit:10;stroke-width:0.5px"/><path d="M77.24,276.88v-.12a98.68,98.68,0,0,0-17.91-1.67A91.42,91.42,0,0,1,77.24,276.88Z" style="fill:none;stroke:#03233a;stroke-miterlimit:10;stroke-width:0.5px"/><path d="M70.84,532.28l-1.32,19.48,2.49-.09Z" style="fill:none;stroke:#03233a;stroke-miterlimit:10;stroke-width:0.5px"/><path d="M50.73,551.83,49.4,532.32l-1.17,19.44Z" style="fill:none;stroke:#03233a;stroke-miterlimit:10;stroke-width:0.5px"/><path d="M77.89,551.36l-6.6-19.17a.23.23,0,0,0-.45.09L72,551.67Q74.93,551.54,77.89,551.36Z" style="fill:none;stroke:#03233a;stroke-miterlimit:10;stroke-width:0.5px"/><path d="M77.92,527.53v-4.61a97.44,97.44,0,0,0-37.17,0v4.61A77.42,77.42,0,0,1,77.92,527.53Z" style="fill:none;stroke:#03233a;stroke-miterlimit:10;stroke-width:0.5px"/><path d="M77.92,551.43l0-.07q-3,.18-5.88.31v0l-2.49.09v0q-9.58.35-18.79.07v0l-2.5-.07h0c-2-.08-3.95-.17-5.9-.29h0c-2.24-.14-4.46-.29-6.66-.48.13,1,1,4.25,6.76,4.25H76.36s6.46,0,6.76-4.23c-1.75.13-3.49.24-5.23.35Z" style="fill:none;stroke:#03233a;stroke-miterlimit:10;stroke-width:0.5px"/><path d="M77.92,527.53a77.42,77.42,0,0,0-37.18,0L32.4,550.71c1.08.11,2.18.19,3.27.28,2.2.19,4.42.34,6.66.48L49,532.23a.23.23,0,0,1,.45.09l1.33,19.51q9.21.27,18.79-.07l1.32-19.48a.23.23,0,0,1,.45-.09l6.6,19.17c1.74-.11,3.48-.22,5.23-.35,1.23-.1,2.47-.19,3.7-.3Z" style="fill:none;stroke:#03233a;stroke-miterlimit:10;stroke-width:0.5px"/><path d="M49.4,532.32a.23.23,0,0,0-.45-.09l-6.62,19.24c2,.12,3.92.21,5.9.29Z" style="fill:none;stroke:#03233a;stroke-miterlimit:10;stroke-width:0.5px"/><path d="M77.9,520.68l0-6.3a97.69,97.69,0,0,0-37.14,0v6.3A91.38,91.38,0,0,1,77.9,520.68Z" style="fill:none;stroke:#03233a;stroke-miterlimit:10;stroke-width:0.5px"/><path d="M77.88,512.15l0-6.3a97.79,97.79,0,0,0-37.12,0v6.3A91.29,91.29,0,0,1,77.88,512.15Z" style="fill:none;stroke:#03233a;stroke-miterlimit:10;stroke-width:0.5px"/><path d="M39.89,565a129.93,129.93,0,0,0,38.28,0l-2.55-9.75H42.43Z" style="fill:#03233a;stroke:#03233a;stroke-miterlimit:10;stroke-width:0.5px"/><path d="M76.93,159.76v-.07l-1.13-3.42a64.62,64.62,0,0,0-34,.28l-1.09,3.14V160A69.31,69.31,0,0,1,76.93,159.76Z" style="fill:#03233a;stroke:#03233a;stroke-miterlimit:10;stroke-width:0.5px"/><path d="M67.09,129.83l-.78-2.39a89.41,89.41,0,0,0-14.36,0l-.84,2.4A95.81,95.81,0,0,1,67.09,129.83Z" style="fill:#03233a;stroke:#03233a;stroke-miterlimit:10;stroke-width:0.5px"/><path d="M77.13,236v-2.24a91.37,91.37,0,0,0-36.39.15v2.23A97.66,97.66,0,0,1,77.13,236Z" style="fill:#03233a;stroke:#03233a;stroke-miterlimit:10;stroke-width:0.5px"/><path d="M77,195.24V193a91.19,91.19,0,0,0-36.28.17v2.23A97.71,97.71,0,0,1,77,195.24Z" style="fill:#03233a;stroke:#03233a;stroke-miterlimit:10;stroke-width:0.5px"/><path d="M77.24,276.76v-2.24a91.37,91.37,0,0,0-36.5.13v2.23a97.16,97.16,0,0,1,36.5-.12Z" style="fill:#03233a;stroke:#03233a;stroke-miterlimit:10;stroke-width:0.5px"/><path d="M77.25,279.12v-2.24a90.73,90.73,0,0,0-36.5.13v2.23A97.46,97.46,0,0,1,77.25,279.12Z" style="fill:none;stroke:#03233a;stroke-miterlimit:10;stroke-width:0.5px"/><path d="M77.36,318.77v-2.24a91.37,91.37,0,0,0-36.61.11v2.23A97.83,97.83,0,0,1,77.36,318.77Z" style="fill:#03233a;stroke:#03233a;stroke-miterlimit:10;stroke-width:0.5px"/><path d="M43.09,356.72v1.36l1.09-.17v0l1.09-.16v0l1.09-.16v0l1.09-.13v0l1.09-.14v0l1.09-.11v0l1.09-.1v0a97.3,97.3,0,0,1,26.74,1.31v-2.23a91.19,91.19,0,0,0-36.72.09v2.23c.78-.16,1.57-.29,2.35-.43Z" style="fill:#03233a;stroke:#03233a;stroke-miterlimit:10;stroke-width:0.5px"/><path d="M77.57,399.39v-2.24a91.19,91.19,0,0,0-36.83.07v2.23A97.49,97.49,0,0,1,77.57,399.39Z" style="fill:#03233a;stroke:#03233a;stroke-miterlimit:10;stroke-width:0.5px"/><path d="M77.91,522.92v-2.24a91.38,91.38,0,0,0-37.16,0v2.23A97.44,97.44,0,0,1,77.91,522.92Z" style="fill:#03233a;stroke:#03233a;stroke-miterlimit:10;stroke-width:0.5px"/><path d="M77.81,488.79v-2.23a91.3,91.3,0,0,0-37.07,0v2.23A97.53,97.53,0,0,1,77.81,488.79Z" style="fill:#03233a;stroke:#03233a;stroke-miterlimit:10;stroke-width:0.5px"/><path d="M77.84,497.32v-2.23a91.22,91.22,0,0,0-37.09,0v2.23A97.68,97.68,0,0,1,77.84,497.32Z" style="fill:#03233a;stroke:#03233a;stroke-miterlimit:10;stroke-width:0.5px"/><path d="M77.86,505.85v-2.23a91.32,91.32,0,0,0-37.11,0v2.23A97.79,97.79,0,0,1,77.86,505.85Z" style="fill:#03233a;stroke:#03233a;stroke-miterlimit:10;stroke-width:0.5px"/><path d="M77.88,514.38v-2.23a91.29,91.29,0,0,0-37.14,0v2.23A97.69,97.69,0,0,1,77.88,514.38Z" style="fill:#03233a;stroke:#03233a;stroke-miterlimit:10;stroke-width:0.5px"/><path d="M65.29,135a1.15,1.15,0,1,1-1.14-1.15A1.14,1.14,0,0,1,65.29,135Z" style="fill:#fff"/><path d="M63.57,130.7a1.15,1.15,0,1,1-1.14,1.15A1.14,1.14,0,0,1,63.57,130.7Z" style="fill:#fff"/><path d="M61.84,135a1.15,1.15,0,1,1-1.15-1.15A1.14,1.14,0,0,1,61.84,135Z" style="fill:#fff"/><path d="M59,131.85A1.14,1.14,0,1,1,60.12,133,1.14,1.14,0,0,1,59,131.85Z" style="fill:#fff"/><path d="M200.91,491.45V156l-1.09-3.14-9.28-26.68-.84-2.4-5-14.5a2.41,2.41,0,0,0-4.56,0l-4.75,14.43-.79,2.39-8.71,26.44L164.72,156v.07l-.09,33.24v2.24l-.11,38.52v2.24l-.11,38.52v4.6l-.1,37.41v2.24l-.11,37.42v2.24l-.11,38.72v2.24l-.24,87.17v2.23l0,6.3A91.22,91.22,0,0,1,200.91,491.45Z" style="fill:#fff"/><path d="M200.91,523.87v-30.1h0v-2.23a91.4,91.4,0,0,0-37.09,0v2.13h0v8.53l0,6.3v2.24l0,6.29v2.24l0,4.61-8.9,23.18c1.24.12,2.47.2,3.7.3.3,4.21,6.76,4.23,6.76,4.23H166l-2.55,9.75a129.93,129.93,0,0,0,38.28,0l-2.54-9.75c5.78,0,6.63-3.28,6.76-4.25,1.09-.09,2.19-.17,3.27-.28Z" style="fill:#fff"/><line x1="193.28" y1="163.38" x2="193.28" y2="174.12" style="fill:none;stroke:#03233a;stroke-miterlimit:10;stroke-width:0.5px"/><line x1="192.19" y1="163.38" x2="192.19" y2="174.12" style="fill:none;stroke:#03233a;stroke-miterlimit:10;stroke-width:0.5px"/><line x1="191.1" y1="163.38" x2="191.1" y2="174.12" style="fill:none;stroke:#03233a;stroke-miterlimit:10;stroke-width:0.5px"/><line x1="190.01" y1="163.38" x2="190.01" y2="174.12" style="fill:none;stroke:#03233a;stroke-miterlimit:10;stroke-width:0.5px"/><line x1="188.92" y1="163.38" x2="188.92" y2="174.12" style="fill:none;stroke:#03233a;stroke-miterlimit:10;stroke-width:0.5px"/><line x1="187.83" y1="163.38" x2="187.83" y2="174.12" style="fill:none;stroke:#03233a;stroke-miterlimit:10;stroke-width:0.5px"/><line x1="186.75" y1="163.38" x2="186.75" y2="174.12" style="fill:none;stroke:#03233a;stroke-miterlimit:10;stroke-width:0.5px"/><line x1="185.66" y1="163.38" x2="185.66" y2="174.12" style="fill:none;stroke:#03233a;stroke-miterlimit:10;stroke-width:0.5px"/><line x1="184.57" y1="163.38" x2="184.57" y2="174.12" style="fill:none;stroke:#03233a;stroke-miterlimit:10;stroke-width:0.5px"/><line x1="183.48" y1="163.38" x2="183.48" y2="174.12" style="fill:none;stroke:#03233a;stroke-miterlimit:10;stroke-width:0.5px"/><path d="M164.08,393.49l.11-38.72a96.92,96.92,0,0,1,26.74-1.32h0l1.09.1h0l1.09.11h0l1.09.14h0l1.09.13h0l1.09.16h0l1.09.16h0l1.09.17h0l2.35.43v38.71A91.19,91.19,0,0,0,164.08,393.49Z" style="fill:none;stroke:#03233a;stroke-miterlimit:10;stroke-width:0.5px"/><path d="M164.19,352.53l.11-37.42a97.78,97.78,0,0,1,36.61.1v37.41A91.19,91.19,0,0,0,164.19,352.53Z" style="fill:none;stroke:#03233a;stroke-miterlimit:10;stroke-width:0.5px"/><path d="M163.82,491.43l0-6.3a97.73,97.73,0,0,1,37.07,0v6.3A91.22,91.22,0,0,0,163.82,491.43Z" style="fill:none;stroke:#03233a;stroke-miterlimit:10;stroke-width:0.5px"/><path d="M199.82,152.89l-9.28-26.68a95.81,95.81,0,0,0-16,0l-8.71,26.44A64.72,64.72,0,0,1,199.82,152.89Z" style="fill:none;stroke:#03233a;stroke-miterlimit:10;stroke-width:0.5px"/><path d="M163.84,482.9l.24-87.17a97.49,97.49,0,0,1,36.83.06v87.13A91.3,91.3,0,0,0,163.84,482.9Z" style="fill:none;stroke:#03233a;stroke-miterlimit:10;stroke-width:0.5px"/><path d="M164.3,312.87l.1-37.41a97.46,97.46,0,0,1,36.51.12V313A91.36,91.36,0,0,0,164.3,312.87Z" style="fill:none;stroke:#03233a;stroke-miterlimit:10;stroke-width:0.5px"/><path d="M164.41,270.86l.11-38.52a97.66,97.66,0,0,1,36.39.14V271A91.37,91.37,0,0,0,164.41,270.86Z" style="fill:none;stroke:#03233a;stroke-miterlimit:10;stroke-width:0.5px"/><path d="M163.8,500v-6.3a97.68,97.68,0,0,1,37.1,0V500A91.49,91.49,0,0,0,163.8,500Z" style="fill:none;stroke:#03233a;stroke-miterlimit:10;stroke-width:0.5px"/><path d="M164.63,189.34l.09-33.24a69.31,69.31,0,0,1,36.19.25v33.16A91.37,91.37,0,0,0,164.63,189.34Z" style="fill:none;stroke:#03233a;stroke-miterlimit:10;stroke-width:0.5px"/><path d="M164.52,230.1l.11-38.52a97.71,97.71,0,0,1,36.28.16v38.51A91.37,91.37,0,0,0,164.52,230.1Z" style="fill:none;stroke:#03233a;stroke-miterlimit:10;stroke-width:0.5px"/><path d="M200.91,273.22v.13a91.59,91.59,0,0,0-18.59-1.91A98.28,98.28,0,0,1,200.91,273.22Z" style="fill:none;stroke:#03233a;stroke-miterlimit:10;stroke-width:0.5px"/><path d="M175.35,123.78l4.75-14.43a2.41,2.41,0,0,1,4.56,0l5,14.5A90.46,90.46,0,0,0,175.35,123.78Z" style="fill:none;stroke:#03233a;stroke-miterlimit:10;stroke-width:0.5px"/><path d="M164.41,273.22v-.12a98.66,98.66,0,0,1,17.91-1.66A92.18,92.18,0,0,0,164.41,273.22Z" style="fill:none;stroke:#03233a;stroke-miterlimit:10;stroke-width:0.5px"/><path d="M170.81,528.62l1.32,19.48-2.48-.09Z" style="fill:none;stroke:#03233a;stroke-miterlimit:10;stroke-width:0.5px"/><path d="M190.92,548.18l1.33-19.52,1.17,19.44Z" style="fill:none;stroke:#03233a;stroke-miterlimit:10;stroke-width:0.5px"/><path d="M163.76,547.7l6.6-19.17a.23.23,0,0,1,.45.09L169.65,548Q166.71,547.88,163.76,547.7Z" style="fill:none;stroke:#03233a;stroke-miterlimit:10;stroke-width:0.5px"/><path d="M163.73,523.87l0-4.61a97.59,97.59,0,0,1,37.16,0v4.61A77.54,77.54,0,0,0,163.73,523.87Z" style="fill:none;stroke:#03233a;stroke-miterlimit:10;stroke-width:0.5px"/><path d="M163.73,547.78l0-.08q3,.18,5.89.31v0l2.48.09v0q9.59.35,18.79.08h0l2.5-.08h0c2-.08,4-.17,5.9-.29h0c2.24-.14,4.46-.29,6.66-.48-.13,1-1,4.25-6.76,4.25H165.29s-6.46,0-6.76-4.23c1.75.13,3.49.24,5.23.35Z" style="fill:none;stroke:#03233a;stroke-miterlimit:10;stroke-width:0.5px"/><path d="M163.73,523.87a77.54,77.54,0,0,1,37.18,0l8.34,23.18c-1.08.11-2.18.19-3.27.28-2.2.19-4.42.34-6.66.48l-6.62-19.24a.23.23,0,0,0-.45.09l-1.33,19.52q-9.21.26-18.79-.08l-1.32-19.48a.23.23,0,0,0-.45-.09l-6.6,19.17c-1.74-.11-3.48-.22-5.23-.35-1.23-.1-2.46-.18-3.7-.3Z" style="fill:none;stroke:#03233a;stroke-miterlimit:10;stroke-width:0.5px"/><path d="M192.25,528.66a.23.23,0,0,1,.45-.09l6.62,19.24c-1.95.12-3.92.21-5.9.29Z" style="fill:none;stroke:#03233a;stroke-miterlimit:10;stroke-width:0.5px"/><path d="M163.75,517l0-6.29a97.49,97.49,0,0,1,37.14,0V517A91.38,91.38,0,0,0,163.75,517Z" style="fill:none;stroke:#03233a;stroke-miterlimit:10;stroke-width:0.5px"/><path d="M163.77,508.49l0-6.3a97.79,97.79,0,0,1,37.12,0v6.3A91.29,91.29,0,0,0,163.77,508.49Z" style="fill:none;stroke:#03233a;stroke-miterlimit:10;stroke-width:0.5px"/><path d="M201.76,561.33a129.93,129.93,0,0,1-38.28,0l2.55-9.75h33.19Z" style="fill:#03233a;stroke:#03233a;stroke-miterlimit:10;stroke-width:0.5px"/><path d="M164.72,156.1V156l1.13-3.42a64.72,64.72,0,0,1,34,.28l1.09,3.14v.32A69.31,69.31,0,0,0,164.72,156.1Z" style="fill:#03233a;stroke:#03233a;stroke-miterlimit:10;stroke-width:0.5px"/><path d="M174.56,126.17l.79-2.39a90.46,90.46,0,0,1,14.35,0l.84,2.4A95.81,95.81,0,0,0,174.56,126.17Z" style="fill:#03233a;stroke:#03233a;stroke-miterlimit:10;stroke-width:0.5px"/><path d="M164.52,232.34V230.1a91.37,91.37,0,0,1,36.39.15v2.23A97.66,97.66,0,0,0,164.52,232.34Z" style="fill:#03233a;stroke:#03233a;stroke-miterlimit:10;stroke-width:0.5px"/><path d="M164.63,191.58v-2.24a91.37,91.37,0,0,1,36.28.17v2.23A97.71,97.71,0,0,0,164.63,191.58Z" style="fill:#03233a;stroke:#03233a;stroke-miterlimit:10;stroke-width:0.5px"/><path d="M164.41,273.1v-2.24a91.37,91.37,0,0,1,36.5.13v2.23a97.71,97.71,0,0,0-36.5-.12Z" style="fill:#03233a;stroke:#03233a;stroke-miterlimit:10;stroke-width:0.5px"/><path d="M164.4,275.46v-2.24a91.21,91.21,0,0,1,36.5.13v2.23A97.46,97.46,0,0,0,164.4,275.46Z" style="fill:none;stroke:#03233a;stroke-miterlimit:10;stroke-width:0.5px"/><path d="M164.3,315.11v-2.24a91.36,91.36,0,0,1,36.61.11v2.23A97.78,97.78,0,0,0,164.3,315.11Z" style="fill:#03233a;stroke:#03233a;stroke-miterlimit:10;stroke-width:0.5px"/><path d="M164.19,352.53v2.24a96.92,96.92,0,0,1,26.74-1.32l1.09.1,1.09.11,1.09.14,1.09.13,1.09.16,1.09.16,1.09.17,2.35.43v-2.23A91.19,91.19,0,0,0,164.19,352.53Z" style="fill:#03233a;stroke:#03233a;stroke-miterlimit:10;stroke-width:0.5px"/><path d="M164.08,395.73v-2.24a91.19,91.19,0,0,1,36.83.07v2.23A97.49,97.49,0,0,0,164.08,395.73Z" style="fill:#03233a;stroke:#03233a;stroke-miterlimit:10;stroke-width:0.5px"/><path d="M163.75,519.26V517a91.38,91.38,0,0,1,37.16,0v2.23A97.59,97.59,0,0,0,163.75,519.26Z" style="fill:#03233a;stroke:#03233a;stroke-miterlimit:10;stroke-width:0.5px"/><path d="M163.84,485.13V482.9a91.3,91.3,0,0,1,37.07,0v2.23A97.73,97.73,0,0,0,163.84,485.13Z" style="fill:#03233a;stroke:#03233a;stroke-miterlimit:10;stroke-width:0.5px"/><path d="M163.83,493.76v-2.23a91.4,91.4,0,0,1,37.09,0v2.23A97.68,97.68,0,0,0,163.83,493.76Z" style="fill:#03233a;stroke:#03233a;stroke-miterlimit:10;stroke-width:0.5px"/><path d="M163.79,502.19V500a91.49,91.49,0,0,1,37.11,0v2.23A97.79,97.79,0,0,0,163.79,502.19Z" style="fill:#03233a;stroke:#03233a;stroke-miterlimit:10;stroke-width:0.5px"/><path d="M163.77,510.73v-2.24a91.29,91.29,0,0,1,37.14,0v2.23A97.49,97.49,0,0,0,163.77,510.73Z" style="fill:#03233a;stroke:#03233a;stroke-miterlimit:10;stroke-width:0.5px"/><line x1="197.91" y1="374.36" x2="197.91" y2="394" style="fill:none;stroke:#03233a;stroke-miterlimit:10;stroke-width:0.5px"/><line x1="196.82" y1="374.36" x2="196.82" y2="394" style="fill:none;stroke:#03233a;stroke-miterlimit:10;stroke-width:0.5px"/><line x1="195.74" y1="374.36" x2="195.74" y2="394" style="fill:none;stroke:#03233a;stroke-miterlimit:10;stroke-width:0.5px"/><line x1="194.65" y1="374.36" x2="194.65" y2="394" style="fill:none;stroke:#03233a;stroke-miterlimit:10;stroke-width:0.5px"/><line x1="193.56" y1="374.36" x2="193.56" y2="394" style="fill:none;stroke:#03233a;stroke-miterlimit:10;stroke-width:0.5px"/><line x1="192.47" y1="374.36" x2="192.47" y2="394" style="fill:none;stroke:#03233a;stroke-miterlimit:10;stroke-width:0.5px"/><line x1="191.38" y1="374.36" x2="191.38" y2="394" style="fill:none;stroke:#03233a;stroke-miterlimit:10;stroke-width:0.5px"/><line x1="190.29" y1="374.36" x2="190.29" y2="394" style="fill:none;stroke:#03233a;stroke-miterlimit:10;stroke-width:0.5px"/><path d="M177.51,130.15a1.15,1.15,0,1,1-1.15,1.15A1.15,1.15,0,0,1,177.51,130.15Z" style="fill:#fff"/><path d="M179.22,128.19a1.14,1.14,0,1,1-1.14-1.15A1.14,1.14,0,0,1,179.22,128.19Z" style="fill:#fff"/><path d="M181,130.15a1.15,1.15,0,1,1-1.15,1.15A1.15,1.15,0,0,1,181,130.15Z" style="fill:#fff"/><path d="M181.53,129.33a1.15,1.15,0,0,1,0-2.29,1.15,1.15,0,1,1,0,2.29Z" style="fill:#fff"/><path d="M78,335.19V100.47c0-.58,0-1.17,0-1.75s0-1.18,0-1.76,0-1.18.08-1.77.07-1.18.12-1.78.09-1.18.15-1.78.12-1.19.19-1.79.14-1.19.22-1.79c0-.11,0-.21,0-.32.07-.5.16-1,.23-1.49s.19-1.21.29-1.81.18-1.21.28-1.81.2-1.21.31-1.81.23-1.22.35-1.82.23-1.22.34-1.83.23-1.22.35-1.82.28-1.22.41-1.83.28-1.23.41-1.84.27-1.23.42-1.83.3-1.23.46-1.85.32-1.23.48-1.85.31-1.24.48-1.85l.51-1.86c.18-.62.37-1.24.56-1.86s.36-1.25.55-1.87l.58-1.87L86.47,55c.94-2.82,1.93-5.61,3-8.34l.64-1.56c.21-.52.43-1,.64-1.55s.43-1,.65-1.55.44-1,.67-1.56.48-1,.72-1.56.47-1.05.72-1.57.47-1.05.72-1.56.52-1,.78-1.58l.8-1.57c.27-.53.53-1.06.8-1.58l.84-1.58c.29-.54.59-1.06.88-1.59s.58-1.07.88-1.59.6-1.07.91-1.6.64-1.06,1-1.6.63-1.07,1-1.6.65-1.07,1-1.61.71-1.07,1.06-1.61.7-1.08,1.06-1.62.71-1.08,1.08-1.62.77-1.08,1.16-1.63Q109,11,110.75,8.77l.92-1.2c.31-.4.61-.8.92-1.19s.63-.79,1-1.18.65-.79,1-1.18l1-1.16c.32-.38.63-.77,1-1.15l.27-.32a2.78,2.78,0,0,1,1.24-.84,3,3,0,0,1,3.36,1l.13.18c.3.38.57.77.86,1.15s.58.77.86,1.15L124,5.16l.88,1.17.86,1.18.83,1.18c1.07,1.51,2.13,3,3.15,4.53.37.53.71,1.07,1.07,1.61l1.06,1.61c.35.54.72,1.07,1.06,1.61s.66,1.07,1,1.6l1,1.6c.33.54.67,1.07,1,1.6l1,1.6c.31.53.61,1.06.91,1.6s.62,1.06.92,1.59.62,1.06.91,1.59.56,1.06.84,1.59l.84,1.58L142.1,34c.27.53.54,1.05.8,1.58s.51,1,.77,1.57.52,1,.77,1.57.52,1,.77,1.58.47,1,.7,1.57.47,1,.7,1.56.47,1,.7,1.57.36.78.52,1.17c.06.13.11.26.16.39q1.69,4,3.15,8.12c.22.63.44,1.25.65,1.87s.42,1.25.62,1.87.4,1.24.59,1.86.38,1.24.57,1.86l.54,1.85.51,1.86c.17.61.33,1.23.49,1.85s.32,1.23.47,1.85.29,1.22.43,1.84.29,1.22.42,1.83.26,1.22.38,1.83.26,1.22.38,1.83.22,1.21.33,1.82.23,1.21.33,1.82.2,1.21.29,1.81.2,1.2.29,1.81.17,1.2.25,1.8l.24,1.8.21,1.79c.07.6.13,1.2.19,1.79s.13,1.19.18,1.79.1,1.19.15,1.78.1,1.19.14,1.78.07,1.18.11,1.77.07,1.18.1,1.77.05,1.18.07,1.77.05,1.17.07,1.76,0,1.17,0,1.76,0,1.17,0,1.76,0,.9,0,1.35v226.6" style="fill:#fff"/><path d="M77.91,353.93l0-14a216.54,216.54,0,0,1,82.29.05v14A202.59,202.59,0,0,0,77.91,353.93Z" style="fill:none;stroke:#fff;stroke-miterlimit:10"/><path d="M77.86,372.87l0-14a216.85,216.85,0,0,1,82.35,0v14A202.66,202.66,0,0,0,77.86,372.87Z" style="fill:none;stroke:#fff;stroke-miterlimit:10"/><path d="M77.71,425.93l0-10.24a216.62,216.62,0,0,1,82.5,0v10.23C133,419.17,105.51,419.31,77.71,425.93Z" style="fill:none;stroke:#fff;stroke-miterlimit:10"/><path d="M77.71,479l.06-.17q6.57.41,13.07.68v0l5.52.21v0q21.27.76,41.7.16v0c1.85-.05,3.7-.1,5.54-.17v0q6.6-.25,13.11-.64v0c5-.3,9.89-.64,14.77-1.07-.28,2.16-2.18,9.43-15,9.43H81.17s-14.34,0-15-9.39c3.89.3,7.75.55,11.6.79Z" style="fill:none;stroke:#fff;stroke-miterlimit:10"/><path d="M77.75,410.74l0-14a216.76,216.76,0,0,1,82.45,0v14A202.67,202.67,0,0,0,77.75,410.74Z" style="fill:none;stroke:#fff;stroke-miterlimit:10"/><path d="M77.81,391.8l0-14a216.71,216.71,0,0,1,82.4,0v14A202.73,202.73,0,0,0,77.81,391.8Z" style="fill:none;stroke:#fff;stroke-miterlimit:10"/><path d="M162.12,509.08a288.69,288.69,0,0,1-85,0l5.64-21.65h73.67Z" style="fill:#083156"/><path d="M77.74,415.69v-4.95a202.67,202.67,0,0,1,82.49,0v4.95A216.62,216.62,0,0,0,77.74,415.69Z" style="fill:#083156"/><path d="M78,340V335a202.53,202.53,0,0,1,82.28.05V340A216.54,216.54,0,0,0,78,340Z" style="fill:#083156"/><path d="M77.93,359.1v-5a202.59,202.59,0,0,1,82.33,0v4.95A216.6,216.6,0,0,0,77.93,359.1Z" style="fill:#083156"/><path d="M77.84,377.82l0-4.95a202.66,202.66,0,0,1,82.38,0v5A216.71,216.71,0,0,0,77.84,377.82Z" style="fill:#083156"/><path d="M77.79,396.76l0-5a202.73,202.73,0,0,1,82.43,0v4.95A216.76,216.76,0,0,0,77.79,396.76Z" style="fill:#083156"/><path d="M77.71,425.93c27.8-6.62,55.32-6.76,82.53,0l18.51,51.46c-2.41.24-4.85.41-7.27.61-4.88.43-9.81.77-14.77,1.07L142,436.37a.51.51,0,0,0-1,.2l-2.95,43.31q-20.43.58-41.7-.16l-2.94-43.24a.51.51,0,0,0-1-.2L77.77,478.83c-3.85-.24-7.71-.49-11.6-.79-2.74-.21-5.47-.4-8.22-.65Z" style="fill:none;stroke:#fff;stroke-miterlimit:10"/><path d="M160.21,130.55v-22c0-.45,0-.9,0-1.35s0-1.17,0-1.76,0-1.17,0-1.76,0-1.17-.07-1.76,0-1.18-.07-1.77-.07-1.18-.1-1.77-.06-1.18-.11-1.77-.09-1.19-.14-1.78-.09-1.19-.15-1.78-.12-1.19-.18-1.79-.12-1.19-.19-1.79l-.21-1.79-.24-1.8c-.08-.6-.16-1.2-.25-1.8s-.19-1.21-.29-1.81-.18-1.21-.29-1.81-.22-1.21-.33-1.82-.21-1.21-.33-1.82-.25-1.22-.38-1.83-.25-1.22-.38-1.83-.28-1.22-.42-1.83-.28-1.23-.43-1.84-.31-1.24-.47-1.85-.32-1.24-.49-1.85L154.11,64l-.54-1.85c-.19-.62-.37-1.24-.57-1.86s-.39-1.24-.59-1.86-.41-1.24-.62-1.87-.43-1.24-.65-1.87q-1.45-4.09-3.15-8.12c-.05-.13-.1-.26-.16-.39-.16-.39-.35-.78-.52-1.17s-.47-1-.7-1.57-.46-1-.7-1.56-.46-1.05-.7-1.57-.52-1.05-.77-1.58-.51-1-.77-1.57-.5-1.05-.77-1.57-.53-1.05-.8-1.58l-.84-1.58-.84-1.58c-.28-.53-.55-1.06-.84-1.59s-.61-1.06-.91-1.59-.61-1.06-.92-1.59-.6-1.07-.91-1.6l-1-1.6c-.32-.53-.66-1.06-1-1.6l-1-1.6c-.33-.53-.65-1.07-1-1.6s-.71-1.07-1.06-1.61l-1.06-1.61c-.36-.54-.7-1.08-1.07-1.61-1-1.51-2.08-3-3.15-4.53l-.83-1.18-.86-1.18L124,5.16,123.15,4c-.28-.38-.56-.77-.86-1.15s-.56-.77-.86-1.15l-.13-.18a3,3,0,0,0-3.36-1,2.78,2.78,0,0,0-1.24.84l-.27.32c-.33.38-.64.77-1,1.15l-1,1.16c-.32.39-.65.78-1,1.18s-.64.78-1,1.18-.61.79-.92,1.19l-.92,1.2Q109,11,107.4,13.34c-.39.55-.78,1.08-1.16,1.63s-.72,1.08-1.08,1.62-.71,1.08-1.06,1.62-.72,1.07-1.06,1.61-.66,1.08-1,1.61-.64,1.07-1,1.6-.66,1.07-1,1.6-.61,1.07-.91,1.6-.59,1.06-.88,1.59-.59,1.05-.88,1.59L96.61,31c-.27.52-.53,1.05-.8,1.58L95,34.14c-.26.53-.53,1-.78,1.58s-.48,1-.72,1.56-.48,1-.72,1.57-.49,1-.72,1.56-.45,1-.67,1.56-.43,1-.65,1.55-.43,1-.64,1.55l-.64,1.56c-1.07,2.73-2.06,5.52-3,8.34l-.63,1.86-.58,1.87c-.19.62-.37,1.25-.55,1.87s-.38,1.24-.56,1.86l-.51,1.86c-.17.61-.32,1.23-.48,1.85s-.33,1.23-.48,1.85-.32,1.23-.46,1.85-.28,1.22-.42,1.83-.27,1.22-.41,1.84-.28,1.21-.41,1.83-.23,1.22-.35,1.82-.23,1.22-.34,1.83-.24,1.21-.35,1.82-.21,1.21-.31,1.81-.19,1.21-.28,1.81-.2,1.21-.29,1.81-.16,1-.23,1.49c0,.11,0,.21,0,.32-.08.6-.15,1.19-.22,1.79s-.14,1.2-.19,1.79-.11,1.19-.15,1.78-.09,1.19-.12,1.78S78.05,96.37,78,97s0,1.17,0,1.76,0,1.17,0,1.75v30.08A202.78,202.78,0,0,1,160.21,130.55Z" style="fill:none"/><path d="M78,130.55v5a216.78,216.78,0,0,1,82.26,0v-5A202.78,202.78,0,0,0,78,130.55Z" style="fill:#083156"/><polyline points="77.95 203.87 77.95 206.77 77.95 208.34 77.95 209.9 77.95 211.47 77.95 213.03 77.95 214.6 77.95 216.16 77.95 217.73 77.95 219.29 77.95 220.86 77.95 222.43 77.95 223.99 77.95 225.56 77.95 227.12 77.95 228.69 77.95 230.25 77.95 231.82 77.95 233.38 77.95 234.95 77.95 236.51 77.95 238.08 77.95 239.64 77.95 241.21 77.95 242.77 77.95 244.34 77.95 245.9 77.95 247.47 77.95 249.03 77.95 250.6 77.95 252.16 77.95 253.73 77.95 255.29 77.95 256.86 77.95 258.42 77.95 259.99 77.95 261.55 77.95 263.12 77.95 264.68 77.95 266.25 77.95 267.81 77.95 269.38 77.95 270.94 77.95 272.58 77.95 274.14 77.95 275.71 77.95 277.27 77.95 278.84 77.95 280.4 77.95 281.97 77.95 283.53 77.95 285.1 77.95 286.66 77.95 288.23 77.95 289.79 77.95 291.36 77.95 292.92 77.95 294.49 77.95 296.05 77.95 297.62 77.95 299.18 77.95 300.75 77.95 302.31 77.95 303.88 77.95 305.44 77.95 307.01 77.95 308.57 77.95 310.14 77.95 311.7 77.95 313.27 77.95 314.83 77.95 316.4 77.95 317.96 77.95 319.53 77.95 321.1 77.95 322.66 77.95 324.23 77.95 325.79 77.95 327.36 77.95 328.92 77.95 330.49 77.95 335.19" style="fill:none;stroke:#03233a;stroke-miterlimit:10;stroke-width:0.75px"/><polyline points="160.21 204.22 160.21 206.57 160.21 208.13 160.21 209.7 160.21 211.26 160.21 212.83 160.21 214.39 160.21 215.96 160.21 217.52 160.21 219.09 160.21 220.65 160.21 222.22 160.21 223.78 160.21 225.35 160.21 226.91 160.21 228.48 160.21 230.04 160.21 231.61 160.21 233.17 160.21 234.74 160.21 236.3 160.21 237.87 160.21 239.43 160.21 241 160.21 242.56 160.21 244.13 160.21 245.69 160.21 247.26 160.21 248.82 160.21 250.39 160.21 251.96 160.21 253.52 160.21 255.09 160.21 256.65 160.21 258.22 160.21 259.78 160.21 261.35 160.21 262.91 160.21 264.48 160.21 266.04 160.21 267.61 160.21 269.17 160.21 270.74 160.21 272.58 160.21 274.14 160.21 275.71 160.21 277.27 160.21 278.84 160.21 280.4 160.21 281.97 160.21 283.53 160.21 285.1 160.21 286.66 160.21 288.23 160.21 289.79 160.21 291.36 160.21 292.92 160.21 294.49 160.21 296.05 160.21 297.62 160.21 299.18 160.21 300.75 160.21 302.31 160.21 303.88 160.21 305.44 160.21 307.01 160.21 308.57 160.21 310.14 160.21 311.7 160.21 313.27 160.21 314.83 160.21 316.4 160.21 317.96 160.21 319.53 160.21 321.1 160.21 322.66 160.21 324.23 160.21 325.79 160.21 327.36 160.21 328.92 160.21 330.49 160.21 335.19" style="fill:none;stroke:#03233a;stroke-miterlimit:10;stroke-width:0.75px"/><path d="M78,203.87V100.47c0-.58,0-1.17,0-1.75s0-1.18,0-1.76,0-1.18.08-1.77.07-1.18.12-1.78.09-1.18.15-1.78.12-1.19.19-1.79.14-1.19.22-1.79c0-.11,0-.21,0-.32.07-.5.16-1,.23-1.49s.19-1.21.29-1.81.18-1.21.28-1.81.2-1.21.31-1.81.23-1.22.35-1.82.23-1.22.34-1.83.23-1.22.35-1.82.28-1.22.41-1.83.28-1.23.41-1.84.27-1.23.42-1.83.3-1.23.46-1.85.32-1.23.48-1.85.31-1.24.48-1.85l.51-1.86c.18-.62.37-1.24.56-1.86s.36-1.25.55-1.87l.58-1.87L86.47,55c.94-2.82,1.93-5.61,3-8.34l.64-1.56c.21-.52.43-1,.64-1.55s.43-1,.65-1.55.44-1,.67-1.56.48-1,.72-1.56.47-1.05.72-1.57.47-1.05.72-1.56.52-1,.78-1.58l.8-1.57c.27-.53.53-1.06.8-1.58l.84-1.58c.29-.54.59-1.06.88-1.59s.58-1.07.88-1.59.6-1.07.91-1.6.64-1.06,1-1.6.63-1.07,1-1.6.65-1.07,1-1.61.71-1.07,1.06-1.61.7-1.08,1.06-1.62.71-1.08,1.08-1.62.77-1.08,1.16-1.63Q109,11,110.75,8.77l.92-1.2c.31-.4.61-.8.92-1.19s.63-.79,1-1.18.65-.79,1-1.18l1-1.16c.32-.38.63-.77,1-1.15l.27-.32a2.78,2.78,0,0,1,1.24-.84,3,3,0,0,1,3.36,1l.13.18c.3.38.57.77.86,1.15s.58.77.86,1.15L124,5.16l.88,1.17.86,1.18.83,1.18c1.07,1.51,2.13,3,3.15,4.53.37.53.71,1.07,1.07,1.61l1.06,1.61c.35.54.72,1.07,1.06,1.61s.66,1.07,1,1.6l1,1.6c.33.54.67,1.07,1,1.6l1,1.6c.31.53.61,1.06.91,1.6s.62,1.06.92,1.59.62,1.06.91,1.59.56,1.06.84,1.59l.84,1.58L142.1,34c.27.53.54,1.05.8,1.58s.51,1,.77,1.57.52,1,.77,1.57.52,1,.77,1.58.47,1,.7,1.57.47,1,.7,1.56.47,1,.7,1.57.36.78.52,1.17c.06.13.11.26.16.39q1.69,4,3.15,8.12c.22.63.44,1.25.65,1.87s.42,1.25.62,1.87.4,1.24.59,1.86.38,1.24.57,1.86l.54,1.85.51,1.86c.17.61.33,1.23.49,1.85s.32,1.23.47,1.85.29,1.22.43,1.84.29,1.22.42,1.83.26,1.22.38,1.83.26,1.22.38,1.83.22,1.21.33,1.82.23,1.21.33,1.82.2,1.21.29,1.81.2,1.2.29,1.81.17,1.2.25,1.8l.24,1.8.21,1.79c.07.6.13,1.2.19,1.79s.13,1.19.18,1.79.1,1.19.15,1.78.1,1.19.14,1.78.07,1.18.11,1.77.07,1.18.1,1.77.05,1.18.07,1.77.05,1.17.07,1.76,0,1.17,0,1.76,0,1.17,0,1.76,0,.9,0,1.35v95.64" style="fill:none;stroke:#03233a;stroke-miterlimit:10;stroke-width:0.75px"/><path d="M135.89,22.85c-3.09-.42-6.19-.72-9.28-.91" style="fill:none;stroke:#03233a;stroke-miterlimit:10;stroke-width:0.25px"/><path d="M148,46.54c-4.91-.66-9.82-1.14-14.73-1.47" style="fill:none;stroke:#03233a;stroke-miterlimit:10;stroke-width:0.25px"/><path d="M147.31,45q-7.22-1-14.42-1.45" style="fill:none;stroke:#03233a;stroke-miterlimit:10;stroke-width:0.25px"/><path d="M146.61,43.41c-4.7-.64-9.4-1.1-14.09-1.41" style="fill:none;stroke:#03233a;stroke-miterlimit:10;stroke-width:0.25px"/><path d="M145.91,41.85q-6.89-.95-13.78-1.39" style="fill:none;stroke:#03233a;stroke-miterlimit:10;stroke-width:0.25px"/><path d="M145.21,40.28c-4.5-.62-9-1.06-13.49-1.36" style="fill:none;stroke:#03233a;stroke-miterlimit:10;stroke-width:0.25px"/><path d="M144.44,38.7c-4.37-.6-8.75-1-13.12-1.32" style="fill:none;stroke:#03233a;stroke-miterlimit:10;stroke-width:0.25px"/><path d="M143.67,37.13c-4.26-.59-8.51-1-12.77-1.29" style="fill:none;stroke:#03233a;stroke-miterlimit:10;stroke-width:0.25px"/><path d="M142.9,35.56c-4.14-.58-8.29-1-12.43-1.26" style="fill:none;stroke:#03233a;stroke-miterlimit:10;stroke-width:0.25px"/><path d="M142.1,34c-4-.56-8-1-12.07-1.23" style="fill:none;stroke:#03233a;stroke-miterlimit:10;stroke-width:0.25px"/><path d="M141.26,32.4q-5.85-.81-11.69-1.19" style="fill:none;stroke:#03233a;stroke-miterlimit:10;stroke-width:0.25px"/><path d="M140.42,30.82q-5.65-.8-11.31-1.15" style="fill:none;stroke:#03233a;stroke-miterlimit:10;stroke-width:0.25px"/><path d="M139.58,29.23c-3.65-.51-7.29-.87-10.94-1.11" style="fill:none;stroke:#03233a;stroke-miterlimit:10;stroke-width:0.25px"/><path d="M138.67,27.64q-5.26-.74-10.52-1.06" style="fill:none;stroke:#03233a;stroke-miterlimit:10;stroke-width:0.25px"/><path d="M137.75,26.05c-3.36-.47-6.73-.8-10.1-1" style="fill:none;stroke:#03233a;stroke-miterlimit:10;stroke-width:0.25px"/><path d="M136.84,24.45c-3.23-.45-6.47-.76-9.7-1" style="fill:none;stroke:#03233a;stroke-miterlimit:10;stroke-width:0.25px"/><path d="M134.9,21.25c-2.94-.4-5.88-.68-8.82-.86" style="fill:none;stroke:#03233a;stroke-miterlimit:10;stroke-width:0.25px"/><path d="M133.92,19.65q-4.2-.57-8.4-.81" style="fill:none;stroke:#03233a;stroke-miterlimit:10;stroke-width:0.25px"/><path d="M132.93,18.05c-2.65-.36-5.31-.61-8-.76" style="fill:none;stroke:#03233a;stroke-miterlimit:10;stroke-width:0.25px"/><path d="M131.87,16.44c-2.5-.33-5-.57-7.48-.7" style="fill:none;stroke:#03233a;stroke-miterlimit:10;stroke-width:0.25px"/><path d="M130.81,14.83c-2.34-.3-4.67-.52-7-.64" style="fill:none;stroke:#03233a;stroke-miterlimit:10;stroke-width:0.25px"/><path d="M123.19,12.65q3.28.15,6.55.57" style="fill:none;stroke:#03233a;stroke-miterlimit:10;stroke-width:0.25px"/><path d="M126.59,8.69q-2.57-.22-5.13-.3" style="fill:none;stroke:#03233a;stroke-miterlimit:10;stroke-width:0.25px"/><path d="M125.76,7.51c-1.59-.13-3.19-.21-4.78-.24" style="fill:none;stroke:#03233a;stroke-miterlimit:10;stroke-width:0.25px"/><path d="M111.67,7.57a85.25,85.25,0,0,1,9.31-.3" style="fill:none;stroke:#03233a;stroke-miterlimit:10;stroke-width:0.25px"/><path d="M124.9,6.33c-1.47-.1-2.94-.16-4.4-.19" style="fill:none;stroke:#03233a;stroke-miterlimit:10;stroke-width:0.25px"/><path d="M113.54,5.2Q116.76,5,120,5" style="fill:none;stroke:#03233a;stroke-miterlimit:10;stroke-width:0.25px"/><path d="M124,5.16c-1.34-.08-2.68-.12-4-.14" style="fill:none;stroke:#03233a;stroke-miterlimit:10;stroke-width:0.25px"/><path d="M123.15,4c-1.21-.06-2.43-.09-3.65-.1" style="fill:none;stroke:#03233a;stroke-miterlimit:10;stroke-width:0.25px"/><path d="M119,2.78c-1.17,0-2.35,0-3.52.08" style="fill:none;stroke:#03233a;stroke-miterlimit:10;stroke-width:0.25px"/><path d="M119,2.78c1.1,0,2.2,0,3.3.07" style="fill:none;stroke:#03233a;stroke-miterlimit:10;stroke-width:0.25px"/><path d="M118.47,1.67c1,0,2,0,3,0" style="fill:none;stroke:#03233a;stroke-miterlimit:10;stroke-width:0.25px"/><path d="M148.71,48.31c-.24-.59-.47-1.18-.72-1.77-.05-.13-.1-.26-.16-.39-.16-.39-.35-.78-.52-1.17s-.47-1-.7-1.57-.46-1-.7-1.56-.46-1.05-.7-1.57-.52-1.05-.77-1.58-.51-1-.77-1.57-.5-1.05-.77-1.57-.53-1.05-.8-1.58l-.84-1.58-.84-1.58c-.28-.53-.55-1.06-.84-1.59s-.61-1.06-.91-1.59-.61-1.06-.92-1.59-.6-1.07-.91-1.6l-1-1.6c-.32-.53-.66-1.06-1-1.6l-1-1.6c-.33-.53-.65-1.07-1-1.6s-.71-1.07-1.06-1.61l-1.06-1.61c-.36-.54-.7-1.08-1.07-1.61s-.53-.76-.79-1.15a87,87,0,0,0-20.71.13c-.28.38-.57.76-.84,1.14-.39.55-.78,1.08-1.16,1.63s-.72,1.08-1.08,1.62-.71,1.08-1.06,1.62-.72,1.07-1.06,1.61-.66,1.08-1,1.61-.64,1.07-1,1.6-.66,1.07-1,1.6-.61,1.07-.91,1.6-.59,1.06-.88,1.59-.59,1.05-.88,1.59L96.61,31c-.27.52-.53,1.05-.8,1.58L95,34.14c-.26.53-.53,1-.78,1.58s-.48,1-.72,1.56-.48,1-.72,1.57-.49,1-.72,1.56-.45,1-.67,1.56-.43,1-.65,1.55-.43,1-.64,1.55l-.64,1.56c-.23.59-.45,1.2-.68,1.8A164,164,0,0,1,148.71,48.31Z" style="fill:none"/><path d="M127.38,9.83l-.79-1.14-.83-1.18-.86-1.18L124,5.16,123.15,4c-.28-.38-.56-.77-.86-1.15s-.56-.77-.86-1.15l-.13-.18a3,3,0,0,0-3.36-1,2.78,2.78,0,0,0-1.24.84l-.27.32c-.33.38-.64.77-1,1.15l-1,1.16c-.32.39-.65.78-1,1.18s-.64.78-1,1.18-.61.79-.92,1.19l-.92,1.2c-.29.38-.56.77-.84,1.15A81,81,0,0,1,127.38,9.83Z" style="fill:none"/><path d="M129,12.07l-1.57-2.24a81,81,0,0,0-17.47.09c-.57.75-1.12,1.51-1.67,2.28A87,87,0,0,1,129,12.07Z" style="fill:#083156"/><path d="M88.79,48.43c-.54,1.44-1.06,2.88-1.56,4.34a175.31,175.31,0,0,1,63.17-.1c-.54-1.46-1.11-2.92-1.69-4.36A164,164,0,0,0,88.79,48.43Z" style="fill:#083156"/><path d="M140.72,134.35q9.75,1,19.49,2.79" style="fill:none;stroke:#03233a;stroke-miterlimit:10;stroke-width:0.25px"/><path d="M140.72,135.91q9.75,1,19.49,2.8" style="fill:none;stroke:#03233a;stroke-miterlimit:10;stroke-width:0.25px"/><path d="M140.73,137.48q9.74,1,19.48,2.79" style="fill:none;stroke:#03233a;stroke-miterlimit:10;stroke-width:0.25px"/><path d="M140.73,139q9.74,1,19.48,2.8" style="fill:none;stroke:#03233a;stroke-miterlimit:10;stroke-width:0.25px"/><path d="M140.73,140.61q9.75,1,19.48,2.79" style="fill:none;stroke:#03233a;stroke-miterlimit:10;stroke-width:0.25px"/><path d="M140.74,142.17q9.73,1,19.47,2.8" style="fill:none;stroke:#03233a;stroke-miterlimit:10;stroke-width:0.25px"/><path d="M140.74,143.74q9.73,1,19.47,2.79" style="fill:none;stroke:#03233a;stroke-miterlimit:10;stroke-width:0.25px"/><path d="M140.74,145.31q9.73.94,19.47,2.79" style="fill:none;stroke:#03233a;stroke-miterlimit:10;stroke-width:0.25px"/><path d="M140.75,146.87q9.74,1,19.46,2.79" style="fill:none;stroke:#03233a;stroke-miterlimit:10;stroke-width:0.25px"/><path d="M140.75,148.44q9.74,1,19.46,2.79" style="fill:none;stroke:#03233a;stroke-miterlimit:10;stroke-width:0.25px"/><path d="M140.75,150q9.74,1,19.46,2.79" style="fill:none;stroke:#03233a;stroke-miterlimit:10;stroke-width:0.25px"/><path d="M140.76,151.57q9.72,1,19.45,2.79" style="fill:none;stroke:#03233a;stroke-miterlimit:10;stroke-width:0.25px"/><path d="M140.76,153.13q9.72,1,19.45,2.79" style="fill:none;stroke:#03233a;stroke-miterlimit:10;stroke-width:0.25px"/><path d="M140.76,154.7q9.74,1,19.45,2.79" style="fill:none;stroke:#03233a;stroke-miterlimit:10;stroke-width:0.25px"/><path d="M140.77,156.26q9.72,1,19.44,2.79" style="fill:none;stroke:#03233a;stroke-miterlimit:10;stroke-width:0.25px"/><path d="M140.77,157.83q9.72,1,19.44,2.79" style="fill:none;stroke:#03233a;stroke-miterlimit:10;stroke-width:0.25px"/><path d="M140.77,159.4q9.72.94,19.44,2.78" style="fill:none;stroke:#03233a;stroke-miterlimit:10;stroke-width:0.25px"/><path d="M140.78,161q9.72,1,19.43,2.79" style="fill:none;stroke:#03233a;stroke-miterlimit:10;stroke-width:0.25px"/><path d="M140.78,162.53q9.72.94,19.43,2.78" style="fill:none;stroke:#03233a;stroke-miterlimit:10;stroke-width:0.25px"/><path d="M140.78,164.09q9.72,1,19.43,2.79" style="fill:none;stroke:#03233a;stroke-miterlimit:10;stroke-width:0.25px"/><path d="M140.79,165.66q9.71,1,19.42,2.78" style="fill:none;stroke:#03233a;stroke-miterlimit:10;stroke-width:0.25px"/><path d="M140.79,167.22q9.72,1,19.42,2.79" style="fill:none;stroke:#03233a;stroke-miterlimit:10;stroke-width:0.25px"/><path d="M140.79,168.79q9.72,1,19.42,2.78" style="fill:none;stroke:#03233a;stroke-miterlimit:10;stroke-width:0.25px"/><path d="M140.8,170.35q9.7,1,19.41,2.79" style="fill:none;stroke:#03233a;stroke-miterlimit:10;stroke-width:0.25px"/><path d="M140.8,171.92q9.7,1,19.41,2.78" style="fill:none;stroke:#03233a;stroke-miterlimit:10;stroke-width:0.25px"/><path d="M140.8,173.48q9.7,1,19.41,2.79" style="fill:none;stroke:#03233a;stroke-miterlimit:10;stroke-width:0.25px"/><path d="M140.81,175.05q9.7,1,19.4,2.78" style="fill:none;stroke:#03233a;stroke-miterlimit:10;stroke-width:0.25px"/><path d="M140.81,176.62q9.7.94,19.4,2.78" style="fill:none;stroke:#03233a;stroke-miterlimit:10;stroke-width:0.25px"/><path d="M140.81,178.18q9.7,1,19.4,2.78" style="fill:none;stroke:#03233a;stroke-miterlimit:10;stroke-width:0.25px"/><path d="M140.82,179.75q9.69.94,19.39,2.78" style="fill:none;stroke:#03233a;stroke-miterlimit:10;stroke-width:0.25px"/><path d="M140.82,181.31q9.69,1,19.39,2.78" style="fill:none;stroke:#03233a;stroke-miterlimit:10;stroke-width:0.25px"/><path d="M140.82,182.88q9.7,1,19.39,2.78" style="fill:none;stroke:#03233a;stroke-miterlimit:10;stroke-width:0.25px"/><path d="M140.83,184.44q9.69,1,19.38,2.79" style="fill:none;stroke:#03233a;stroke-miterlimit:10;stroke-width:0.25px"/><path d="M140.83,186q9.69,1,19.38,2.78" style="fill:none;stroke:#03233a;stroke-miterlimit:10;stroke-width:0.25px"/><path d="M140.83,187.57q9.69,1,19.38,2.79" style="fill:none;stroke:#03233a;stroke-miterlimit:10;stroke-width:0.25px"/><path d="M140.83,189.14q9.69,1,19.38,2.78" style="fill:none;stroke:#03233a;stroke-miterlimit:10;stroke-width:0.25px"/><path d="M140.84,190.7q9.69,1,19.37,2.79" style="fill:none;stroke:#03233a;stroke-miterlimit:10;stroke-width:0.25px"/><path d="M140.84,192.27q9.69,1,19.37,2.78" style="fill:none;stroke:#03233a;stroke-miterlimit:10;stroke-width:0.25px"/><path d="M140.84,193.83q9.69,1,19.37,2.79" style="fill:none;stroke:#03233a;stroke-miterlimit:10;stroke-width:0.25px"/><path d="M140.84,195.4q9.69,1,19.37,2.78" style="fill:none;stroke:#03233a;stroke-miterlimit:10;stroke-width:0.25px"/><path d="M140.85,197q9.68.94,19.36,2.78" style="fill:none;stroke:#03233a;stroke-miterlimit:10;stroke-width:0.25px"/><path d="M140.85,198.53q9.68,1,19.36,2.78" style="fill:none;stroke:#03233a;stroke-miterlimit:10;stroke-width:0.25px"/><path d="M134.89,52.47q8.12.7,16.25,2.19" style="fill:none;stroke:#03233a;stroke-miterlimit:10;stroke-width:0.25px"/><path d="M135.25,54.27q8.26.73,16.54,2.26" style="fill:none;stroke:#03233a;stroke-miterlimit:10;stroke-width:0.25px"/><path d="M135.61,56.07q8.4.76,16.8,2.33" style="fill:none;stroke:#03233a;stroke-miterlimit:10;stroke-width:0.25px"/><path d="M135.94,57.87q8.53.8,17.06,2.39" style="fill:none;stroke:#03233a;stroke-miterlimit:10;stroke-width:0.25px"/><path d="M136.27,59.67q8.64.81,17.3,2.45" style="fill:none;stroke:#03233a;stroke-miterlimit:10;stroke-width:0.25px"/><path d="M136.59,61.47q8.76.83,17.52,2.5" style="fill:none;stroke:#03233a;stroke-miterlimit:10;stroke-width:0.25px"/><path d="M136.88,63.26c5.91.57,11.83,1.41,17.74,2.57" style="fill:none;stroke:#03233a;stroke-miterlimit:10;stroke-width:0.25px"/><path d="M137.17,65.06c6,.58,12,1.44,17.94,2.62" style="fill:none;stroke:#03233a;stroke-miterlimit:10;stroke-width:0.25px"/><path d="M137.46,66.85q9.06.89,18.12,2.68" style="fill:none;stroke:#03233a;stroke-miterlimit:10;stroke-width:0.25px"/><path d="M137.71,68.64q9.15.92,18.3,2.73" style="fill:none;stroke:#03233a;stroke-miterlimit:10;stroke-width:0.25px"/><path d="M138,70.43q9.24.93,18.47,2.77" style="fill:none;stroke:#03233a;stroke-miterlimit:10;stroke-width:0.25px"/><path d="M138.21,72.22q9.3.94,18.6,2.81" style="fill:none;stroke:#03233a;stroke-miterlimit:10;stroke-width:0.25px"/><path d="M138.43,74q9.39,1,18.76,2.85" style="fill:none;stroke:#03233a;stroke-miterlimit:10;stroke-width:0.25px"/><path d="M138.65,75.8q9.43,1,18.87,2.88" style="fill:none;stroke:#03233a;stroke-miterlimit:10;stroke-width:0.25px"/><path d="M138.86,77.59q9.49,1,19,2.91" style="fill:none;stroke:#03233a;stroke-miterlimit:10;stroke-width:0.25px"/><path d="M139.05,79.37q9.55,1,19.09,2.94" style="fill:none;stroke:#03233a;stroke-miterlimit:10;stroke-width:0.25px"/><path d="M139.23,81.16q9.6,1,19.2,3" style="fill:none;stroke:#03233a;stroke-miterlimit:10;stroke-width:0.25px"/><path d="M139.4,82.94q9.65,1,19.28,3" style="fill:none;stroke:#03233a;stroke-miterlimit:10;stroke-width:0.25px"/><path d="M139.58,84.72q9.66,1,19.34,3" style="fill:none;stroke:#03233a;stroke-miterlimit:10;stroke-width:0.25px"/><path d="M139.71,86.5q9.72,1,19.42,3" style="fill:none;stroke:#03233a;stroke-miterlimit:10;stroke-width:0.25px"/><path d="M139.85,88.29q9.74,1,19.47,3" style="fill:none;stroke:#03233a;stroke-miterlimit:10;stroke-width:0.25px"/><path d="M140,90.07q9.77,1,19.52,3" style="fill:none;stroke:#03233a;stroke-miterlimit:10;stroke-width:0.25px"/><path d="M140.1,91.84q9.78,1,19.55,3" style="fill:none;stroke:#03233a;stroke-miterlimit:10;stroke-width:0.25px"/><path d="M140.2,93.62q9.8,1,19.59,3" style="fill:none;stroke:#03233a;stroke-miterlimit:10;stroke-width:0.25px"/><path d="M140.3,95.4q9.8,1,19.6,3" style="fill:none;stroke:#03233a;stroke-miterlimit:10;stroke-width:0.25px"/><path d="M140.4,97.17q9.79,1,19.6,3" style="fill:none;stroke:#03233a;stroke-miterlimit:10;stroke-width:0.25px"/><path d="M140.46,99q9.81,1,19.61,3" style="fill:none;stroke:#03233a;stroke-miterlimit:10;stroke-width:0.25px"/><path d="M140.52,100.72q9.81,1,19.62,3" style="fill:none;stroke:#03233a;stroke-miterlimit:10;stroke-width:0.25px"/><path d="M140.58,102.49q9.79,1,19.6,3" style="fill:none;stroke:#03233a;stroke-miterlimit:10;stroke-width:0.25px"/><path d="M140.64,104.26q9.78,1,19.56,3" style="fill:none;stroke:#03233a;stroke-miterlimit:10;stroke-width:0.25px"/><path d="M140.64,106q9.8,1,19.57,3" style="fill:none;stroke:#03233a;stroke-miterlimit:10;stroke-width:0.25px"/><path d="M140.65,107.8q9.78,1,19.56,2.94" style="fill:none;stroke:#03233a;stroke-miterlimit:10;stroke-width:0.25px"/><path d="M140.65,109.57q9.78,1,19.56,2.92" style="fill:none;stroke:#03233a;stroke-miterlimit:10;stroke-width:0.25px"/><path d="M140.66,111.33q9.78,1,19.55,2.91" style="fill:none;stroke:#03233a;stroke-miterlimit:10;stroke-width:0.25px"/><path d="M140.66,113.1c6.52.66,13,1.61,19.55,2.89" style="fill:none;stroke:#03233a;stroke-miterlimit:10;stroke-width:0.25px"/><path d="M140.67,114.87q9.77,1,19.54,2.87" style="fill:none;stroke:#03233a;stroke-miterlimit:10;stroke-width:0.25px"/><path d="M140.67,116.63c6.52.66,13,1.6,19.54,2.86" style="fill:none;stroke:#03233a;stroke-miterlimit:10;stroke-width:0.25px"/><path d="M140.68,118.4q9.76,1,19.53,2.84" style="fill:none;stroke:#03233a;stroke-miterlimit:10;stroke-width:0.25px"/><path d="M140.68,120.17c6.51.65,13,1.58,19.53,2.83" style="fill:none;stroke:#03233a;stroke-miterlimit:10;stroke-width:0.25px"/><path d="M140.69,121.94q9.76,1,19.52,2.82" style="fill:none;stroke:#03233a;stroke-miterlimit:10;stroke-width:0.25px"/><path d="M140.69,123.7c6.51.65,13,1.57,19.52,2.81" style="fill:none;stroke:#03233a;stroke-miterlimit:10;stroke-width:0.25px"/><path d="M140.7,125.47q9.75,1,19.51,2.8" style="fill:none;stroke:#03233a;stroke-miterlimit:10;stroke-width:0.25px"/><path d="M160.35,204.05a216.18,216.18,0,0,0-82.26-.36" style="fill:none;stroke:#03233a;stroke-miterlimit:10;stroke-width:2px"/><path d="M77.91,353.93l0-14a216.54,216.54,0,0,1,82.29.05v14A202.59,202.59,0,0,0,77.91,353.93Z" style="fill:none;stroke:#03233a;stroke-miterlimit:10;stroke-width:0.75px"/><path d="M77.86,372.87l0-14a216.85,216.85,0,0,1,82.35,0v14A202.66,202.66,0,0,0,77.86,372.87Z" style="fill:none;stroke:#03233a;stroke-miterlimit:10;stroke-width:0.75px"/><path d="M93.42,436.48l2.94,43.24-5.52-.21Z" style="fill:none;stroke:#03233a;stroke-miterlimit:10;stroke-width:0.75px"/><path d="M138.06,479.88,141,436.57l2.59,43.14C141.76,479.78,139.91,479.83,138.06,479.88Z" style="fill:none;stroke:#03233a;stroke-miterlimit:10;stroke-width:0.75px"/><path d="M77.71,425.93l0-10.24a216.62,216.62,0,0,1,82.5,0v10.23C133,419.17,105.51,419.31,77.71,425.93Z" style="fill:none;stroke:#03233a;stroke-miterlimit:10;stroke-width:0.75px"/><path d="M77.71,479l.06-.17q6.57.41,13.07.68v0l5.52.21v0q21.27.76,41.7.16v0c1.85-.05,3.7-.1,5.54-.17v0q6.6-.25,13.11-.64v0c5-.3,9.89-.64,14.77-1.07-.28,2.16-2.18,9.43-15,9.43H81.17s-14.34,0-15-9.39c3.89.3,7.75.55,11.6.79Z" style="fill:none;stroke:#03233a;stroke-miterlimit:10;stroke-width:0.75px"/><path d="M77.71,425.93c27.8-6.62,55.32-6.76,82.53,0l18.51,51.46c-2.41.24-4.85.41-7.27.61-4.88.43-9.81.77-14.77,1.07L142,436.37a.51.51,0,0,0-1,.2l-2.95,43.31q-20.43.58-41.7-.16l-2.94-43.24a.51.51,0,0,0-1-.2L77.77,478.83c-3.85-.24-7.71-.49-11.6-.79-2.74-.21-5.47-.4-8.22-.65Z" style="fill:none;stroke:#03233a;stroke-miterlimit:10;stroke-width:0.75px"/><path d="M141,436.57a.51.51,0,0,1,1-.2l14.71,42.7q-6.51.39-13.11.64Z" style="fill:none;stroke:#03233a;stroke-miterlimit:10"/><path d="M77.75,410.74l0-14a216.76,216.76,0,0,1,82.45,0v14A202.67,202.67,0,0,0,77.75,410.74Z" style="fill:none;stroke:#03233a;stroke-miterlimit:10;stroke-width:0.75px"/><path d="M77.81,391.8l0-14a216.71,216.71,0,0,1,82.4,0v14A202.73,202.73,0,0,0,77.81,391.8Z" style="fill:none;stroke:#03233a;stroke-miterlimit:10;stroke-width:0.75px"/><path d="M162.12,509.08a288.69,288.69,0,0,1-85,0l5.64-21.65h73.67Z" style="fill:none;stroke:#03233a;stroke-miterlimit:10;stroke-width:0.75px"/><path d="M77.74,415.69v-4.95a202.67,202.67,0,0,1,82.49,0v4.95A216.62,216.62,0,0,0,77.74,415.69Z" style="fill:#03233a;stroke:#03233a;stroke-miterlimit:10;stroke-width:0.75px"/><path d="M78,340V335a202.53,202.53,0,0,1,82.28.05V340A216.54,216.54,0,0,0,78,340Z" style="fill:#03233a;stroke:#03233a;stroke-miterlimit:10;stroke-width:0.75px"/><path d="M77.93,359.1v-5a202.59,202.59,0,0,1,82.33,0v4.95A216.6,216.6,0,0,0,77.93,359.1Z" style="fill:#03233a;stroke:#03233a;stroke-miterlimit:10;stroke-width:0.75px"/><path d="M77.84,377.82l0-4.95a202.66,202.66,0,0,1,82.38,0v5A216.71,216.71,0,0,0,77.84,377.82Z" style="fill:#03233a;stroke:#03233a;stroke-miterlimit:10;stroke-width:0.75px"/><path d="M77.79,396.76l0-5a202.73,202.73,0,0,1,82.43,0v4.95A216.76,216.76,0,0,0,77.79,396.76Z" style="fill:#03233a;stroke:#03233a;stroke-miterlimit:10;stroke-width:0.75px"/><path d="M140.86,203.79q9.67.94,19.35,2.78" style="fill:none;stroke:#03233a;stroke-miterlimit:10;stroke-width:0.25px"/><path d="M140.86,205.35q9.67,1,19.35,2.78" style="fill:none;stroke:#03233a;stroke-miterlimit:10;stroke-width:0.25px"/><path d="M140.86,206.92q9.67,1,19.35,2.78" style="fill:none;stroke:#03233a;stroke-miterlimit:10;stroke-width:0.25px"/><path d="M140.87,208.48q9.67,1,19.34,2.78" style="fill:none;stroke:#03233a;stroke-miterlimit:10;stroke-width:0.25px"/><path d="M140.87,210.05q9.67,1,19.34,2.78" style="fill:none;stroke:#03233a;stroke-miterlimit:10;stroke-width:0.25px"/><path d="M140.87,211.61q9.67,1,19.34,2.78" style="fill:none;stroke:#03233a;stroke-miterlimit:10;stroke-width:0.25px"/><path d="M140.87,213.18q9.67,1,19.34,2.78" style="fill:none;stroke:#03233a;stroke-miterlimit:10;stroke-width:0.25px"/><path d="M140.88,214.74q9.66,1,19.33,2.78" style="fill:none;stroke:#03233a;stroke-miterlimit:10;stroke-width:0.25px"/><path d="M140.88,216.31q9.66,1,19.33,2.78" style="fill:none;stroke:#03233a;stroke-miterlimit:10;stroke-width:0.25px"/><path d="M140.88,217.87q9.66,1,19.33,2.78" style="fill:none;stroke:#03233a;stroke-miterlimit:10;stroke-width:0.25px"/><path d="M140.88,219.44q9.68,1,19.33,2.78" style="fill:none;stroke:#03233a;stroke-miterlimit:10;stroke-width:0.25px"/><path d="M140.88,221q9.68.94,19.33,2.77" style="fill:none;stroke:#03233a;stroke-miterlimit:10;stroke-width:0.25px"/><path d="M140.89,222.57q9.66,1,19.32,2.78" style="fill:none;stroke:#03233a;stroke-miterlimit:10;stroke-width:0.25px"/><path d="M140.89,224.14q9.66.95,19.32,2.77" style="fill:none;stroke:#03233a;stroke-miterlimit:10;stroke-width:0.25px"/><path d="M140.89,225.7q9.66,1,19.32,2.78" style="fill:none;stroke:#03233a;stroke-miterlimit:10;stroke-width:0.25px"/><path d="M140.89,227.27c6.44.64,12.88,1.55,19.32,2.77" style="fill:none;stroke:#03233a;stroke-miterlimit:10;stroke-width:0.25px"/><path d="M140.89,228.83q9.66,1,19.32,2.78" style="fill:none;stroke:#03233a;stroke-miterlimit:10;stroke-width:0.25px"/><path d="M140.9,230.4q9.66,1,19.31,2.77" style="fill:none;stroke:#03233a;stroke-miterlimit:10;stroke-width:0.25px"/><path d="M140.9,232q9.66,1,19.31,2.78" style="fill:none;stroke:#03233a;stroke-miterlimit:10;stroke-width:0.25px"/><path d="M140.9,233.53q9.66,1,19.31,2.77" style="fill:none;stroke:#03233a;stroke-miterlimit:10;stroke-width:0.25px"/><path d="M140.9,235.09q9.66,1,19.31,2.78" style="fill:none;stroke:#03233a;stroke-miterlimit:10;stroke-width:0.25px"/><path d="M140.9,236.66q9.66,1,19.31,2.77" style="fill:none;stroke:#03233a;stroke-miterlimit:10;stroke-width:0.25px"/><path d="M140.91,238.22q9.65,1,19.3,2.78" style="fill:none;stroke:#03233a;stroke-miterlimit:10;stroke-width:0.25px"/><path d="M140.91,239.79q9.65,1,19.3,2.77" style="fill:none;stroke:#03233a;stroke-miterlimit:10;stroke-width:0.25px"/><path d="M140.91,241.35q9.65,1,19.3,2.78" style="fill:none;stroke:#03233a;stroke-miterlimit:10;stroke-width:0.25px"/><path d="M140.91,242.92q9.65,1,19.3,2.77" style="fill:none;stroke:#03233a;stroke-miterlimit:10;stroke-width:0.25px"/><path d="M140.91,244.49q9.66.94,19.3,2.77" style="fill:none;stroke:#03233a;stroke-miterlimit:10;stroke-width:0.25px"/><path d="M140.91,246.05q9.66,1,19.3,2.77" style="fill:none;stroke:#03233a;stroke-miterlimit:10;stroke-width:0.25px"/><path d="M140.91,247.62q9.66.94,19.3,2.77" style="fill:none;stroke:#03233a;stroke-miterlimit:10;stroke-width:0.25px"/><path d="M140.92,249.18q9.65,1,19.29,2.77" style="fill:none;stroke:#03233a;stroke-miterlimit:10;stroke-width:0.25px"/><path d="M140.92,250.75q9.65.94,19.29,2.77" style="fill:none;stroke:#03233a;stroke-miterlimit:10;stroke-width:0.25px"/><path d="M140.92,252.31q9.65,1,19.29,2.78" style="fill:none;stroke:#03233a;stroke-miterlimit:10;stroke-width:0.25px"/><path d="M140.92,253.88c6.43.64,12.86,1.55,19.29,2.77" style="fill:none;stroke:#03233a;stroke-miterlimit:10;stroke-width:0.25px"/><path d="M140.92,255.44q9.65,1,19.29,2.78" style="fill:none;stroke:#03233a;stroke-miterlimit:10;stroke-width:0.25px"/><path d="M140.92,257c6.43.64,12.86,1.55,19.29,2.77" style="fill:none;stroke:#03233a;stroke-miterlimit:10;stroke-width:0.25px"/><path d="M140.92,258.57q9.65,1,19.29,2.78" style="fill:none;stroke:#03233a;stroke-miterlimit:10;stroke-width:0.25px"/><path d="M140.92,260.14c6.43.64,12.86,1.55,19.29,2.77" style="fill:none;stroke:#03233a;stroke-miterlimit:10;stroke-width:0.25px"/><path d="M140.92,261.7q9.65,1,19.29,2.78" style="fill:none;stroke:#03233a;stroke-miterlimit:10;stroke-width:0.25px"/><path d="M140.93,263.27c6.42.64,12.85,1.55,19.28,2.77" style="fill:none;stroke:#03233a;stroke-miterlimit:10;stroke-width:0.25px"/><path d="M140.93,264.83q9.65,1,19.28,2.78" style="fill:none;stroke:#03233a;stroke-miterlimit:10;stroke-width:0.25px"/><path d="M140.93,266.4q9.65,1,19.28,2.77" style="fill:none;stroke:#03233a;stroke-miterlimit:10;stroke-width:0.25px"/><path d="M140.93,268q9.65,1,19.28,2.78" style="fill:none;stroke:#03233a;stroke-miterlimit:10;stroke-width:0.25px"/><path d="M140.93,269.76q9.65,1,19.28,2.82" style="fill:none;stroke:#03233a;stroke-miterlimit:10;stroke-width:0.25px"/><path d="M140.93,271.32q9.65,1,19.28,2.82" style="fill:none;stroke:#03233a;stroke-miterlimit:10;stroke-width:0.25px"/><path d="M140.93,272.89q9.65,1,19.28,2.82" style="fill:none;stroke:#03233a;stroke-miterlimit:10;stroke-width:0.25px"/><path d="M140.93,274.45q9.65,1,19.28,2.82" style="fill:none;stroke:#03233a;stroke-miterlimit:10;stroke-width:0.25px"/><path d="M140.93,276q9.65,1,19.28,2.82" style="fill:none;stroke:#03233a;stroke-miterlimit:10;stroke-width:0.25px"/><path d="M140.93,277.58q9.65,1,19.28,2.82" style="fill:none;stroke:#03233a;stroke-miterlimit:10;stroke-width:0.25px"/><path d="M140.93,279.15q9.65,1,19.28,2.82" style="fill:none;stroke:#03233a;stroke-miterlimit:10;stroke-width:0.25px"/><path d="M160.21,283.53q-9.63-1.84-19.28-2.82" style="fill:none;stroke:#03233a;stroke-miterlimit:10;stroke-width:0.25px"/><path d="M140.93,282.28q9.65,1,19.28,2.82" style="fill:none;stroke:#03233a;stroke-miterlimit:10;stroke-width:0.25px"/><path d="M140.93,283.84q9.65,1,19.28,2.82" style="fill:none;stroke:#03233a;stroke-miterlimit:10;stroke-width:0.25px"/><path d="M140.93,285.41q9.65,1,19.28,2.82" style="fill:none;stroke:#03233a;stroke-miterlimit:10;stroke-width:0.25px"/><path d="M140.93,287q9.65,1,19.28,2.82" style="fill:none;stroke:#03233a;stroke-miterlimit:10;stroke-width:0.25px"/><path d="M140.93,288.54q9.65,1,19.28,2.82" style="fill:none;stroke:#03233a;stroke-miterlimit:10;stroke-width:0.25px"/><path d="M140.93,290.1q9.65,1,19.28,2.82" style="fill:none;stroke:#03233a;stroke-miterlimit:10;stroke-width:0.25px"/><path d="M140.93,291.67q9.65,1,19.28,2.82" style="fill:none;stroke:#03233a;stroke-miterlimit:10;stroke-width:0.25px"/><path d="M140.93,293.23q9.65,1,19.28,2.82" style="fill:none;stroke:#03233a;stroke-miterlimit:10;stroke-width:0.25px"/><path d="M140.93,294.8q9.65,1,19.28,2.82" style="fill:none;stroke:#03233a;stroke-miterlimit:10;stroke-width:0.25px"/><path d="M140.93,296.36q9.63,1,19.28,2.82" style="fill:none;stroke:#03233a;stroke-miterlimit:10;stroke-width:0.25px"/><path d="M140.93,297.93q9.63,1,19.28,2.82" style="fill:none;stroke:#03233a;stroke-miterlimit:10;stroke-width:0.25px"/><path d="M140.92,299.49q9.65,1,19.29,2.82" style="fill:none;stroke:#03233a;stroke-miterlimit:10;stroke-width:0.25px"/><path d="M140.92,301.06q9.65,1,19.29,2.82" style="fill:none;stroke:#03233a;stroke-miterlimit:10;stroke-width:0.25px"/><path d="M140.92,302.62q9.65,1,19.29,2.82" style="fill:none;stroke:#03233a;stroke-miterlimit:10;stroke-width:0.25px"/><path d="M140.92,304.19q9.65,1,19.29,2.82" style="fill:none;stroke:#03233a;stroke-miterlimit:10;stroke-width:0.25px"/><path d="M140.92,305.75q9.65,1,19.29,2.82" style="fill:none;stroke:#03233a;stroke-miterlimit:10;stroke-width:0.25px"/><path d="M140.92,307.32q9.65,1,19.29,2.82" style="fill:none;stroke:#03233a;stroke-miterlimit:10;stroke-width:0.25px"/><path d="M140.91,308.88q9.66,1,19.3,2.82" style="fill:none;stroke:#03233a;stroke-miterlimit:10;stroke-width:0.25px"/><path d="M140.91,310.45q9.66,1,19.3,2.82" style="fill:none;stroke:#03233a;stroke-miterlimit:10;stroke-width:0.25px"/><path d="M140.91,312q9.65,1,19.3,2.82" style="fill:none;stroke:#03233a;stroke-miterlimit:10;stroke-width:0.25px"/><path d="M140.91,313.58q9.65,1,19.3,2.82" style="fill:none;stroke:#03233a;stroke-miterlimit:10;stroke-width:0.25px"/><path d="M140.91,315.14c6.43.66,12.87,1.59,19.3,2.83" style="fill:none;stroke:#03233a;stroke-miterlimit:10;stroke-width:0.25px"/><path d="M140.9,316.71q9.66,1,19.31,2.82" style="fill:none;stroke:#03233a;stroke-miterlimit:10;stroke-width:0.25px"/><path d="M140.9,318.27c6.44.66,12.88,1.59,19.31,2.83" style="fill:none;stroke:#03233a;stroke-miterlimit:10;stroke-width:0.25px"/><path d="M140.9,319.84q9.66,1,19.31,2.82" style="fill:none;stroke:#03233a;stroke-miterlimit:10;stroke-width:0.25px"/><path d="M140.89,321.4c6.44.66,12.88,1.59,19.32,2.83" style="fill:none;stroke:#03233a;stroke-miterlimit:10;stroke-width:0.25px"/><path d="M140.89,323q9.66,1,19.32,2.82" style="fill:none;stroke:#03233a;stroke-miterlimit:10;stroke-width:0.25px"/><path d="M140.89,324.53c6.44.66,12.88,1.59,19.32,2.83" style="fill:none;stroke:#03233a;stroke-miterlimit:10;stroke-width:0.25px"/><path d="M140.88,326.1q9.68,1,19.33,2.82" style="fill:none;stroke:#03233a;stroke-miterlimit:10;stroke-width:0.25px"/><path d="M140.88,327.66c6.44.66,12.89,1.59,19.33,2.83" style="fill:none;stroke:#03233a;stroke-miterlimit:10;stroke-width:0.25px"/><path d="M140.83,329.46q9.69,1,19.36,2.78" style="fill:none;stroke:#03233a;stroke-miterlimit:10;stroke-width:0.25px"/><path d="M140.84,331q9.67,1,19.35,2.78" style="fill:none;stroke:#03233a;stroke-miterlimit:10;stroke-width:0.25px"/><path d="M140.85,338.85q9.68,1,19.34,2.78" style="fill:none;stroke:#03233a;stroke-miterlimit:10;stroke-width:0.25px"/><path d="M140.85,340.41q9.68,1,19.34,2.78" style="fill:none;stroke:#03233a;stroke-miterlimit:10;stroke-width:0.25px"/><path d="M140.85,342q9.68,1,19.34,2.78" style="fill:none;stroke:#03233a;stroke-miterlimit:10;stroke-width:0.25px"/><path d="M140.86,343.55q9.66.94,19.33,2.77" style="fill:none;stroke:#03233a;stroke-miterlimit:10;stroke-width:0.25px"/><path d="M140.86,345.11q9.66,1,19.33,2.78" style="fill:none;stroke:#03233a;stroke-miterlimit:10;stroke-width:0.25px"/><path d="M140.86,346.68q9.66.94,19.33,2.77" style="fill:none;stroke:#03233a;stroke-miterlimit:10;stroke-width:0.25px"/><path d="M140.86,348.24q9.66,1,19.33,2.78" style="fill:none;stroke:#03233a;stroke-miterlimit:10;stroke-width:0.25px"/><path d="M140.86,349.81c6.45.64,12.89,1.55,19.33,2.77" style="fill:none;stroke:#03233a;stroke-miterlimit:10;stroke-width:0.25px"/><path d="M140.87,357.63q9.66,1,19.32,2.78" style="fill:none;stroke:#03233a;stroke-miterlimit:10;stroke-width:0.25px"/><path d="M140.88,359.2q9.65,1,19.31,2.77" style="fill:none;stroke:#03233a;stroke-miterlimit:10;stroke-width:0.25px"/><path d="M140.88,360.76q9.65,1,19.31,2.78" style="fill:none;stroke:#03233a;stroke-miterlimit:10;stroke-width:0.25px"/><path d="M140.88,362.33q9.66,1,19.31,2.77" style="fill:none;stroke:#03233a;stroke-miterlimit:10;stroke-width:0.25px"/><path d="M140.88,363.9q9.66.94,19.31,2.77" style="fill:none;stroke:#03233a;stroke-miterlimit:10;stroke-width:0.25px"/><path d="M140.88,365.46q9.66,1,19.31,2.77" style="fill:none;stroke:#03233a;stroke-miterlimit:10;stroke-width:0.25px"/><path d="M140.88,367q9.66.95,19.31,2.77" style="fill:none;stroke:#03233a;stroke-miterlimit:10;stroke-width:0.25px"/><path d="M140.89,368.59q9.65,1,19.3,2.78" style="fill:none;stroke:#03233a;stroke-miterlimit:10;stroke-width:0.25px"/><path d="M140.89,376.42c6.43.64,12.87,1.55,19.3,2.77" style="fill:none;stroke:#03233a;stroke-miterlimit:10;stroke-width:0.25px"/><path d="M140.89,378q9.66,1,19.3,2.78" style="fill:none;stroke:#03233a;stroke-miterlimit:10;stroke-width:0.25px"/><path d="M140.9,379.55c6.43.64,12.86,1.55,19.29,2.77" style="fill:none;stroke:#03233a;stroke-miterlimit:10;stroke-width:0.25px"/><path d="M140.9,381.11q9.65,1,19.29,2.78" style="fill:none;stroke:#03233a;stroke-miterlimit:10;stroke-width:0.25px"/><path d="M140.9,382.68c6.43.64,12.86,1.55,19.29,2.77" style="fill:none;stroke:#03233a;stroke-miterlimit:10;stroke-width:0.25px"/><path d="M140.9,384.24q9.65,1,19.29,2.78" style="fill:none;stroke:#03233a;stroke-miterlimit:10;stroke-width:0.25px"/><path d="M140.9,385.81q9.65,1,19.29,2.77" style="fill:none;stroke:#03233a;stroke-miterlimit:10;stroke-width:0.25px"/><path d="M140.9,387.37q9.65,1,19.29,2.78" style="fill:none;stroke:#03233a;stroke-miterlimit:10;stroke-width:0.25px"/><path d="M140.9,395.43q9.65,1,19.29,2.82" style="fill:none;stroke:#03233a;stroke-miterlimit:10;stroke-width:0.25px"/><path d="M140.9,397q9.65,1,19.29,2.82" style="fill:none;stroke:#03233a;stroke-miterlimit:10;stroke-width:0.25px"/><path d="M140.91,398.56q9.63,1,19.28,2.82" style="fill:none;stroke:#03233a;stroke-miterlimit:10;stroke-width:0.25px"/><path d="M140.91,400.12q9.63,1,19.28,2.82" style="fill:none;stroke:#03233a;stroke-miterlimit:10;stroke-width:0.25px"/><path d="M140.91,401.69q9.63,1,19.28,2.82" style="fill:none;stroke:#03233a;stroke-miterlimit:10;stroke-width:0.25px"/><path d="M140.91,403.25q9.63,1,19.28,2.82" style="fill:none;stroke:#03233a;stroke-miterlimit:10;stroke-width:0.25px"/><path d="M140.91,404.82q9.63,1,19.28,2.82" style="fill:none;stroke:#03233a;stroke-miterlimit:10;stroke-width:0.25px"/><path d="M160.19,409.2q-9.65-1.84-19.28-2.82" style="fill:none;stroke:#03233a;stroke-miterlimit:10;stroke-width:0.25px"/><path d="M140.91,414.21q9.63,1,19.28,2.82" style="fill:none;stroke:#03233a;stroke-miterlimit:10;stroke-width:0.25px"/><path d="M140.9,415.77q9.65,1,19.29,2.82" style="fill:none;stroke:#03233a;stroke-miterlimit:10;stroke-width:0.25px"/><path d="M140.9,417.34q9.65,1,19.29,2.82" style="fill:none;stroke:#03233a;stroke-miterlimit:10;stroke-width:0.25px"/><path d="M140.9,418.9q9.65,1,19.29,2.82" style="fill:none;stroke:#03233a;stroke-miterlimit:10;stroke-width:0.25px"/><path d="M140.9,420.47q9.65,1,19.29,2.82" style="fill:none;stroke:#03233a;stroke-miterlimit:10;stroke-width:0.25px"/><path d="M114.43,517.81V514l1.47-.67L118,532.12h2.41l2.14-18.75,1.46,1v3.4l21-.34C150,515.41,149.3,506,149.3,506c8.06-.5,7.82-3.79,7.82-3.79V485.15C168.81,484.7,238,472,238,472v-19.6c2.87-20.38-21.57-40.59-46.81-63.67a93,93,0,0,1-25.44-39.4c-.22-.72-.33-1.12-.33-1.12a67.94,67.94,0,0,1-2.49-9.28c-5.57-25.82-12.77-86.65-12.77-86.65-1-5.46-2.06-11-3.25-16.7-2.43-11.5-5.35-23.36-8.7-35.39q-2.17-7.8-4.6-15.69-.79-2.59-1.62-5.21c-.81-2.55-1.62-5.1-2.46-7.66a11,11,0,0,0-20.07-1.47,11.14,11.14,0,0,0-.64,1.49q-1.22,3.66-2.37,7.31c-.59,1.84-1.16,3.66-1.73,5.49q-2.43,7.92-4.62,15.75c-3.19,11.45-6,22.74-8.27,33.71q-2,9.36-3.48,18.37L74.55,339l-1.48,9.28s-.33,1.09-1.06,3A110.83,110.83,0,0,1,47.3,388.76C28,408,1.4,430,.5,452.43V472s69.18,12.67,80.86,13.12V502.2s-.23,3.29,7.83,3.79c0,0-.67,9.42,4.23,11.48" style="fill:#fff"/><path d="M133.6,184.53q-.79-2.59-1.62-5.21" style="fill:none;stroke:#03233a;stroke-miterlimit:10"/><path d="M104.71,184.48c.57-1.83,1.14-3.65,1.73-5.49" style="fill:none;stroke:#03233a;stroke-miterlimit:10"/><path d="M146.9,235.61c1.19,5.66,2.3,11.24,3.25,16.7,0,0,7.2,60.83,12.77,86.65" style="fill:none;stroke:#03233a;stroke-miterlimit:10"/><line x1="146.9" y1="367.8" x2="146.9" y2="235.61" style="fill:none;stroke:#03233a;stroke-miterlimit:10"/><path d="M164,363.64c-1,2.49-2.37,4.06-4.41,4.16H146.9" style="fill:none;stroke:#03233a;stroke-miterlimit:10"/><path d="M83.25,488.14l5.84.08v13.41H83.25Z" style="fill:#03233a;stroke:#03233a;stroke-miterlimit:10"/><path d="M149.4,488.22l5.84-.08v13.49H149.4Z" style="fill:#03233a;stroke:#03233a;stroke-miterlimit:10"/><path d="M112.09,488.1c0,.57-30.73,0-30.73,0V471.7a72.52,72.52,0,0,1,10.23-34.07H110S113.08,469.44,112.09,488.1Z" style="fill:none;stroke:#03233a;stroke-miterlimit:10"/><circle cx="86.15" cy="491.03" r="0.93" style="fill:#03233a;stroke:#03233a;stroke-miterlimit:10"/><circle cx="86.15" cy="494.99" r="0.93" style="fill:#03233a;stroke:#03233a;stroke-miterlimit:10"/><circle cx="86.15" cy="498.95" r="0.93" style="fill:#03233a;stroke:#03233a;stroke-miterlimit:10"/><line x1="90.69" y1="501.63" x2="81.36" y2="501.63" style="fill:none;stroke:#03233a;stroke-miterlimit:10;stroke-width:0.75px"/><ellipse cx="95.43" cy="505.35" rx="5.68" ry="1.23" style="fill:#03233a;stroke:#03233a;stroke-miterlimit:10"/><ellipse cx="103.64" cy="517.81" rx="10.79" ry="2.33" style="fill:#03233a;stroke:#03233a;stroke-miterlimit:10"/><path d="M114.43,514v2.35a2.79,2.79,0,0,1-1.88,2.65c-4.26,1.47-14.43,1.82-18.65-.49a2,2,0,0,1-1.05-1.74v-4.75a1.36,1.36,0,0,1,1.21-1.48v-4.05" style="fill:none;stroke:#03233a;stroke-miterlimit:10;stroke-width:0.75px"/><path d="M90.27,505.57a.75.75,0,0,1-.45-.79c.15-1.21.59-4,1.42-4.9,0,0,.68-4.1,2.75-4.38,0,0,4.34-1.44,5.84,3.45,0,0,1.42.78,1.32,5.44a1.43,1.43,0,0,1-.9,1.3A13.65,13.65,0,0,1,90.27,505.57Z" style="fill:none;stroke:#03233a;stroke-miterlimit:10;stroke-width:0.75px"/><polyline points="91.82 488.35 91.82 491.04 94.65 491.04 102 491.04 102 488.35" style="fill:none;stroke:#03233a;stroke-miterlimit:10;stroke-width:0.75px"/><polyline points="92.21 497.01 94.65 491.04 99.74 491.04 99.83 498.94" style="fill:none;stroke:#03233a;stroke-miterlimit:10;stroke-width:0.75px"/><circle cx="152.34" cy="491.03" r="0.93" style="fill:#03233a;stroke:#03233a;stroke-miterlimit:10"/><circle cx="152.34" cy="494.99" r="0.93" style="fill:#03233a;stroke:#03233a;stroke-miterlimit:10"/><circle cx="152.34" cy="498.95" r="0.93" style="fill:#03233a;stroke:#03233a;stroke-miterlimit:10"/><line x1="157.12" y1="501.63" x2="155.24" y2="501.63" style="fill:none;stroke:#03233a;stroke-miterlimit:10"/><line x1="149.4" y1="501.63" x2="147.79" y2="501.63" style="fill:none;stroke:#03233a;stroke-miterlimit:10"/><path d="M155.24,488.14l-5.84.08" style="fill:none;stroke:#03233a;stroke-miterlimit:10"/><line x1="155.24" y1="488.14" x2="155.24" y2="501.63" style="fill:none;stroke:#03233a;stroke-miterlimit:10"/><line x1="149.4" y1="488.22" x2="149.4" y2="501.63" style="fill:none;stroke:#03233a;stroke-miterlimit:10"/><line x1="149.4" y1="501.63" x2="155.24" y2="501.63" style="fill:none;stroke:#03233a;stroke-miterlimit:10"/><ellipse cx="143.06" cy="505.35" rx="5.68" ry="1.23" style="fill:#03233a;stroke:#03233a;stroke-miterlimit:10"/><ellipse cx="134.84" cy="517.81" rx="10.79" ry="2.33" style="fill:#03233a;stroke:#03233a;stroke-miterlimit:10"/><path d="M124.05,514.41v2.26a2.39,2.39,0,0,0,1.49,2.22c3.91,1.56,14.28,2,18.79-.2a2.39,2.39,0,0,0,1.3-2.17v-4.46a1.35,1.35,0,0,0-1.21-1.48v-4.05" style="fill:none;stroke:#03233a;stroke-miterlimit:10;stroke-width:0.75px"/><path d="M148.21,505.57a.75.75,0,0,0,.46-.79c-.16-1.21-.6-4-1.42-4.9,0,0-.68-4.1-2.75-4.38,0,0-4.34-1.44-5.85,3.45,0,0-1.41.78-1.31,5.44a1.42,1.42,0,0,0,.89,1.3A13.65,13.65,0,0,0,148.21,505.57Z" style="fill:none;stroke:#03233a;stroke-miterlimit:10;stroke-width:0.75px"/><polyline points="146.66 488.35 146.66 491.04 143.84 491.04 136.48 491.04 136.48 488.35" style="fill:none;stroke:#03233a;stroke-miterlimit:10;stroke-width:0.75px"/><polyline points="146.28 497.01 143.84 491.04 138.75 491.04 138.65 498.94" style="fill:none;stroke:#03233a;stroke-miterlimit:10;stroke-width:0.75px"/><path d="M111.31,488.23v2.68A1.29,1.29,0,0,1,110,492.2H99.76" style="fill:none;stroke:#03233a;stroke-miterlimit:10;stroke-width:0.75px"/><path d="M118.23,440.09c-5.1,26.07-5,56.93-.19,92a.35.35,0,0,0,.69,0V440.15A.25.25,0,0,0,118.23,440.09Z" style="fill:none;stroke:#03233a;stroke-miterlimit:10;stroke-width:0.75px"/><path d="M120.26,440.09c5.1,26.07,5,56.93.19,92a.35.35,0,0,1-.69,0V440.15A.25.25,0,0,1,120.26,440.09Z" style="fill:none;stroke:#03233a;stroke-miterlimit:10;stroke-width:0.75px"/><ellipse cx="119.24" cy="512.58" rx="10.79" ry="2.33" style="fill:#03233a;stroke:#03233a;stroke-miterlimit:10"/><path d="M114.43,487.25c-6.13,2.78-6,25-6,25,0,3.1,21.58,3.1,21.58,0,0,0,.15-22.27-6-25" style="fill:none;stroke:#03233a;stroke-miterlimit:10"/><path d="M127.09,488.23v2.68a1.3,1.3,0,0,0,1.3,1.29h10.26" style="fill:none;stroke:#03233a;stroke-miterlimit:10;stroke-width:0.75px"/><ellipse cx="119.24" cy="486.16" rx="2.56" ry="48.13" style="fill:#03233a;stroke:#03233a;stroke-miterlimit:10"/><line x1="119.24" y1="251.88" x2="119.24" y2="438.03" style="fill:none;stroke:#03233a;stroke-miterlimit:10"/><path d="M83.65,456.58H.5v1.89H83.18C83.32,457.85,83.48,457.22,83.65,456.58Z" style="fill:none"/><path d="M85,452.05H.5v4.53H83.65C84,455.13,84.46,453.61,85,452.05Z" style="fill:#03233a;stroke:#03233a;stroke-miterlimit:10"/><path d="M.5,458.47V463H82.27c.23-1.39.53-2.9.91-4.52Z" style="fill:#03233a;stroke:#03233a;stroke-miterlimit:10"/><path d="M157.12,471.7v13.45C168.81,484.7,238,472,238,472v-9H156.22A59,59,0,0,1,157.12,471.7Z" style="fill:none"/><path d="M154.84,456.58c.17.64.33,1.27.47,1.89H238v-1.89Z" style="fill:none"/><path d="M238,456.58v-4.53H153.52c.51,1.56.95,3.08,1.32,4.53Z" style="fill:#03233a;stroke:#03233a;stroke-miterlimit:10"/><path d="M156.22,463H238v-4.52H155.31C155.68,460.09,156,461.6,156.22,463Z" style="fill:#03233a;stroke:#03233a;stroke-miterlimit:10"/><line x1="198.79" y1="460.73" x2="198.79" y2="479.14" style="fill:none;stroke:red;stroke-miterlimit:10;stroke-width:3px"/><line x1="40.27" y1="460.73" x2="40.27" y2="479.14" style="fill:none;stroke:red;stroke-miterlimit:10;stroke-width:3px"/><path d="M109.45,170.19a10.89,10.89,0,0,1,19.56.26" style="fill:none;stroke:#03233a;stroke-miterlimit:10"/><path d="M74.55,339l13.79-86.65q1.5-9,3.48-18.37" style="fill:none;stroke:#03233a;stroke-miterlimit:10"/><path d="M146.9,235.61c-2.43-11.5-5.35-23.36-8.7-35.39q-2.17-7.8-4.6-15.69a105.5,105.5,0,0,0-28.89-.05q-2.43,7.92-4.62,15.75c-3.19,11.45-6,22.74-8.27,33.71" style="fill:none;stroke:#03233a;stroke-miterlimit:10"/><path d="M.5,452.62V472s69.18,12.67,80.86,13.12V502.2s-.23,3.29,7.83,3.79c0,0-.67,9.42,4.23,11.48" style="fill:none;stroke:#03233a;stroke-miterlimit:10"/><path d="M.5,452.62v-.19C1.4,430,28,408,47.3,388.76A110.83,110.83,0,0,0,72,351.22" style="fill:none;stroke:#03233a;stroke-miterlimit:10"/><polyline points="91.82 366.81 91.82 437.63 146.9 437.63 146.9 367.8" style="fill:none;stroke:#03233a;stroke-miterlimit:10"/><line x1="91.82" y1="366.81" x2="91.82" y2="233.94" style="fill:none;stroke:#03233a;stroke-miterlimit:10"/><path d="M98.74,204.77a113.18,113.18,0,0,1,40.68,0" style="fill:none;stroke:#03233a;stroke-miterlimit:10"/><path d="M6.8,452.62l.42-2.87a26.57,26.57,0,0,1,6.9-14.34l45.36-48.47a67.72,67.72,0,0,0,14.37-23.58" style="fill:none;stroke:#03233a;stroke-miterlimit:10"/><line x1="6.8" y1="452.62" x2="6.72" y2="453.18" style="fill:none;stroke:#03233a;stroke-miterlimit:10"/><path d="M91.82,366.81H78.16c-2,.07-3.35-1.24-4.31-3.45" style="fill:none;stroke:#03233a;stroke-miterlimit:10"/><path d="M238,453.18V472s-69.18,12.67-80.87,13.12V502.2s.24,3.29-7.82,3.79c0,0,.67,9.42-4.24,11.48" style="fill:none;stroke:#03233a;stroke-miterlimit:10"/><path d="M164,363.64a67.79,67.79,0,0,0,14.27,23.3l45.36,48.47a26.57,26.57,0,0,1,6.9,14.34l.5,3.43" style="fill:none;stroke:#03233a;stroke-miterlimit:10"/><path d="M165.74,349.36a93,93,0,0,0,25.44,39.4c25.24,23.08,49.68,43.29,46.81,63.67v.75" style="fill:none;stroke:#03233a;stroke-miterlimit:10"/><line x1="231.02" y1="453.18" x2="237.99" y2="453.18" style="fill:none;stroke:#03233a;stroke-miterlimit:10"/><path d="M124.4,183.66V178.6c-1-.06-2-.12-3-.15v5.11" style="fill:#083156"/><path d="M120.44,183.54v-5.11c-.8,0-1.6-.06-2.4-.06v5.14Z" style="fill:#083156"/><path d="M124.4,183.66q4.54.26,9.2.87" style="fill:none;stroke:#03233a;stroke-miterlimit:10"/><path d="M117.12,183.53c-1,0-2,0-3,.08v-5.16c1,0,2-.07,3-.08Z" style="fill:#083156"/><line x1="6.8" y1="452.62" x2="0.5" y2="452.62" style="fill:none;stroke:#03233a;stroke-miterlimit:10"/><path d="M73.85,363.36a67.72,67.72,0,0,1-14.37,23.58L14.12,435.41a26.57,26.57,0,0,0-6.9,14.34l-.42,2.87H.5v-.19C1.4,430,28,408,47.3,388.76A110.83,110.83,0,0,0,72,351.22c.73-1.89,1.06-3,1.06-3L74.55,339h2.66a.9.9,0,0,1,.9,1c-.1,1.74-.39,5.72-1.09,10.64A66.47,66.47,0,0,1,73.85,363.36Z" style="fill:#03233a;stroke:#03233a;stroke-miterlimit:10"/><path d="M.5,472s69.18,12.67,80.86,13.12V502.2s-.23,3.29,7.83,3.79c0,0-.67,9.42,4.23,11.48" style="fill:none;stroke:#03233a;stroke-miterlimit:10"/><path d="M149.4,488.22l5.84-.08v13.49H149.4Z" style="fill:#03233a;stroke:#03233a;stroke-miterlimit:10"/><circle cx="86.15" cy="491.03" r="0.93" style="fill:#03233a;stroke:#03233a;stroke-miterlimit:10"/><circle cx="86.15" cy="494.99" r="0.93" style="fill:#03233a;stroke:#03233a;stroke-miterlimit:10"/><circle cx="86.15" cy="498.95" r="0.93" style="fill:#03233a;stroke:#03233a;stroke-miterlimit:10"/><path d="M89.09,488.22c9.1.13,23,.26,23-.12,1-18.66-2.12-50.47-2.12-50.47H91.59A72.52,72.52,0,0,0,81.36,471.7v16.4l1.89,0" style="fill:none"/><line x1="90.69" y1="501.63" x2="89.09" y2="501.63" style="fill:none"/><line x1="81.36" y1="501.63" x2="83.25" y2="501.63" style="fill:none"/><ellipse cx="95.43" cy="505.35" rx="5.68" ry="1.23" style="fill:#03233a;stroke:#03233a;stroke-miterlimit:10"/><ellipse cx="103.64" cy="517.81" rx="10.79" ry="2.33" style="fill:#03233a;stroke:#03233a;stroke-miterlimit:10"/><path d="M114.43,514v2.35a2.79,2.79,0,0,1-1.88,2.65c-4.26,1.47-14.43,1.82-18.65-.49a2,2,0,0,1-1.05-1.74v-4.75a1.36,1.36,0,0,1,1.21-1.48v-4.05" style="fill:none;stroke:#03233a;stroke-miterlimit:10;stroke-width:0.75px"/><path d="M90.27,505.57a.75.75,0,0,1-.45-.79c.15-1.21.59-4,1.42-4.9,0,0,.68-4.1,2.75-4.38,0,0,4.34-1.44,5.84,3.45,0,0,1.42.78,1.32,5.44a1.43,1.43,0,0,1-.9,1.3A13.65,13.65,0,0,1,90.27,505.57Z" style="fill:none;stroke:#03233a;stroke-miterlimit:10;stroke-width:0.75px"/><polyline points="91.82 488.35 91.82 491.04 94.65 491.04 102 491.04 102 488.35" style="fill:none;stroke:#03233a;stroke-miterlimit:10;stroke-width:0.75px"/><polyline points="92.21 497.01 94.65 491.04 99.74 491.04 99.83 498.94" style="fill:none;stroke:#03233a;stroke-miterlimit:10;stroke-width:0.75px"/><circle cx="152.34" cy="491.03" r="0.93" style="fill:#03233a;stroke:#03233a;stroke-miterlimit:10"/><circle cx="152.34" cy="494.99" r="0.93" style="fill:#03233a;stroke:#03233a;stroke-miterlimit:10"/><circle cx="152.34" cy="498.95" r="0.93" style="fill:#03233a;stroke:#03233a;stroke-miterlimit:10"/><path d="M155.24,488.14l1.88,0V471.7a72.44,72.44,0,0,0-10.22-34.07H128.52s-3.11,31.81-2.12,50.47c0,.38,13.9.25,23,.12" style="fill:none;stroke:#03233a;stroke-miterlimit:10"/><line x1="157.12" y1="501.63" x2="155.24" y2="501.63" style="fill:none;stroke:#03233a;stroke-miterlimit:10"/><line x1="149.4" y1="501.63" x2="147.79" y2="501.63" style="fill:none;stroke:#03233a;stroke-miterlimit:10"/><path d="M155.24,488.14l-5.84.08" style="fill:none;stroke:#03233a;stroke-miterlimit:10"/><line x1="155.24" y1="488.14" x2="155.24" y2="501.63" style="fill:none;stroke:#03233a;stroke-miterlimit:10"/><line x1="149.4" y1="488.22" x2="149.4" y2="501.63" style="fill:none;stroke:#03233a;stroke-miterlimit:10"/><line x1="149.4" y1="501.63" x2="155.24" y2="501.63" style="fill:none;stroke:#03233a;stroke-miterlimit:10"/><ellipse cx="143.06" cy="505.35" rx="5.68" ry="1.23" style="fill:#03233a;stroke:#03233a;stroke-miterlimit:10"/><ellipse cx="134.84" cy="517.81" rx="10.79" ry="2.33" style="fill:#03233a;stroke:#03233a;stroke-miterlimit:10"/><path d="M124.05,514.41v2.26a2.39,2.39,0,0,0,1.49,2.22c3.91,1.56,14.28,2,18.79-.2a2.39,2.39,0,0,0,1.3-2.17v-4.46a1.35,1.35,0,0,0-1.21-1.48v-4.05" style="fill:none;stroke:#03233a;stroke-miterlimit:10;stroke-width:0.75px"/><path d="M148.21,505.57a.75.75,0,0,0,.46-.79c-.16-1.21-.6-4-1.42-4.9,0,0-.68-4.1-2.75-4.38,0,0-4.34-1.44-5.85,3.45,0,0-1.41.78-1.31,5.44a1.42,1.42,0,0,0,.89,1.3A13.65,13.65,0,0,0,148.21,505.57Z" style="fill:none;stroke:#03233a;stroke-miterlimit:10;stroke-width:0.75px"/><polyline points="146.66 488.35 146.66 491.04 143.84 491.04 136.48 491.04 136.48 488.35" style="fill:none;stroke:#03233a;stroke-miterlimit:10;stroke-width:0.75px"/><polyline points="146.28 497.01 143.84 491.04 138.75 491.04 138.65 498.94" style="fill:none;stroke:#03233a;stroke-miterlimit:10;stroke-width:0.75px"/><path d="M111.31,488.23v2.68A1.29,1.29,0,0,1,110,492.2H99.76" style="fill:none;stroke:#03233a;stroke-miterlimit:10;stroke-width:0.75px"/><path d="M118.23,440.09c-5.1,26.07-5,56.93-.19,92a.35.35,0,0,0,.69,0V440.15A.25.25,0,0,0,118.23,440.09Z" style="fill:none;stroke:#03233a;stroke-miterlimit:10;stroke-width:0.75px"/><path d="M120.26,440.09c5.1,26.07,5,56.93.19,92a.35.35,0,0,1-.69,0V440.15A.25.25,0,0,1,120.26,440.09Z" style="fill:none;stroke:#03233a;stroke-miterlimit:10;stroke-width:0.75px"/><ellipse cx="119.24" cy="512.58" rx="10.79" ry="2.33" style="fill:#03233a;stroke:#03233a;stroke-miterlimit:10"/><path d="M114.43,487.25c-6.13,2.78-6,25-6,25,0,3.1,21.58,3.1,21.58,0,0,0,.15-22.27-6-25" style="fill:none;stroke:#03233a;stroke-miterlimit:10"/><path d="M127.09,488.23v2.68a1.3,1.3,0,0,0,1.3,1.29h10.26" style="fill:none;stroke:#03233a;stroke-miterlimit:10;stroke-width:0.75px"/><ellipse cx="119.24" cy="486.16" rx="2.56" ry="48.13" style="fill:#03233a;stroke:#03233a;stroke-miterlimit:10"/><line x1="119.24" y1="251.88" x2="119.24" y2="438.03" style="fill:none;stroke:#03233a;stroke-miterlimit:10"/><line x1="120.28" y1="243.62" x2="120.28" y2="249.1" style="fill:none;stroke:#03233a;stroke-miterlimit:10;stroke-width:0.5px"/><line x1="121.28" y1="243.62" x2="121.28" y2="249.1" style="fill:none;stroke:#03233a;stroke-miterlimit:10;stroke-width:0.5px"/><line x1="122.28" y1="243.62" x2="122.28" y2="249.1" style="fill:none;stroke:#03233a;stroke-miterlimit:10;stroke-width:0.5px"/><line x1="123.28" y1="243.62" x2="123.28" y2="249.1" style="fill:none;stroke:#03233a;stroke-miterlimit:10;stroke-width:0.5px"/><line x1="124.28" y1="243.62" x2="124.28" y2="249.1" style="fill:none;stroke:#03233a;stroke-miterlimit:10;stroke-width:0.5px"/><line x1="125.28" y1="243.62" x2="125.28" y2="249.1" style="fill:none;stroke:#03233a;stroke-miterlimit:10;stroke-width:0.5px"/><line x1="113.21" y1="243.62" x2="113.21" y2="249.1" style="fill:none;stroke:#03233a;stroke-miterlimit:10;stroke-width:0.5px"/><line x1="114.21" y1="243.62" x2="114.21" y2="249.1" style="fill:none;stroke:#03233a;stroke-miterlimit:10;stroke-width:0.5px"/><line x1="115.21" y1="243.62" x2="115.21" y2="249.1" style="fill:none;stroke:#03233a;stroke-miterlimit:10;stroke-width:0.5px"/><line x1="116.21" y1="243.62" x2="116.21" y2="249.1" style="fill:none;stroke:#03233a;stroke-miterlimit:10;stroke-width:0.5px"/><line x1="117.21" y1="243.62" x2="117.21" y2="249.1" style="fill:none;stroke:#03233a;stroke-miterlimit:10;stroke-width:0.5px"/><line x1="118.21" y1="243.62" x2="118.21" y2="249.1" style="fill:none;stroke:#03233a;stroke-miterlimit:10;stroke-width:0.5px"/><path d="M92.21,254.14q25.77-5.34,54.69,0" style="fill:none;stroke:#03233a;stroke-miterlimit:10"/><line x1="113.21" y1="190.7" x2="113.21" y2="194.9" style="fill:none;stroke:#03233a;stroke-miterlimit:10;stroke-width:0.5px"/><line x1="114.5" y1="190.7" x2="114.5" y2="194.9" style="fill:none;stroke:#03233a;stroke-miterlimit:10;stroke-width:0.5px"/><line x1="115.79" y1="190.7" x2="115.79" y2="194.9" style="fill:none;stroke:#03233a;stroke-miterlimit:10;stroke-width:0.5px"/><line x1="117.08" y1="190.7" x2="117.08" y2="194.9" style="fill:none;stroke:#03233a;stroke-miterlimit:10;stroke-width:0.5px"/><line x1="118.37" y1="190.7" x2="118.37" y2="194.9" style="fill:none;stroke:#03233a;stroke-miterlimit:10;stroke-width:0.5px"/><line x1="119.65" y1="190.7" x2="119.65" y2="194.9" style="fill:none;stroke:#03233a;stroke-miterlimit:10;stroke-width:0.5px"/><line x1="120.94" y1="190.7" x2="120.94" y2="194.9" style="fill:none;stroke:#03233a;stroke-miterlimit:10;stroke-width:0.5px"/><line x1="122.23" y1="190.7" x2="122.23" y2="194.9" style="fill:none;stroke:#03233a;stroke-miterlimit:10;stroke-width:0.5px"/><line x1="123.52" y1="190.7" x2="123.52" y2="194.9" style="fill:none;stroke:#03233a;stroke-miterlimit:10;stroke-width:0.5px"/><line x1="124.81" y1="190.7" x2="124.81" y2="194.9" style="fill:none;stroke:#03233a;stroke-miterlimit:10;stroke-width:0.5px"/><path d="M83.65,456.58H.5v1.89H83.18C83.32,457.85,83.48,457.22,83.65,456.58Z" style="fill:none"/><path d="M85,452.05H.5v4.53H83.65C84,455.13,84.46,453.61,85,452.05Z" style="fill:#03233a;stroke:#03233a;stroke-miterlimit:10"/><path d="M154.84,456.58c.17.64.33,1.27.47,1.89H238v-1.89Z" style="fill:none"/><path d="M156.22,463H238v-4.52H155.31C155.68,460.09,156,461.6,156.22,463Z" style="fill:#03233a;stroke:#03233a;stroke-miterlimit:10"/><line x1="198.79" y1="460.73" x2="198.79" y2="479.14" style="fill:none;stroke:#03233a;stroke-miterlimit:10;stroke-width:3px"/><line x1="40.27" y1="460.73" x2="40.27" y2="479.14" style="fill:none;stroke:#03233a;stroke-miterlimit:10;stroke-width:3px"/><line x1="129.01" y1="170.45" x2="131.98" y2="179.32" style="fill:none;stroke:#03233a;stroke-miterlimit:10"/><line x1="109.45" y1="170.19" x2="106.44" y2="178.99" style="fill:none;stroke:#03233a;stroke-miterlimit:10"/><path d="M238,453.18v-.75c2.87-20.38-21.57-40.59-46.81-63.67a93,93,0,0,1-25.44-39.4c-.22-.72-.33-1.12-.33-1.12a67.94,67.94,0,0,1-2.49-9.28h-2.75a.56.56,0,0,0-.56.59c.08,1.5.35,5.71,1.11,11A66.19,66.19,0,0,0,164,363.64a67.79,67.79,0,0,0,14.27,23.3l41.64,44.48A49.42,49.42,0,0,1,228.58,444a22,22,0,0,1,1.94,5.71l.5,3.43" style="fill:#03233a;stroke:#03233a;stroke-miterlimit:10"/><path d="M99.92,235.68v-5q19.15-25.17,38.31,0v5c.48-.42-9.29-11.5-9.77-11.08l-19,0C109.08,224.24,99.53,235.34,99.92,235.68Z" style="fill:#083156"/><path d="M46.24,435.53c-1.68,2.83-2,5.16-1,6.59,2.18,3,9.76,1.16,18-4.32,10.07-.44,17.36-3.46,17.36-7.19,0-1.79-1.69-3.47-4.79-4.77,2-3.07,2.41-5.58,1.3-7.1a4.24,4.24,0,0,0-3.62-1.4c-3.63,0-9.2,2.17-15,6.07-10.14.42-17.5,3.44-17.5,7.2C41.09,432.47,42.92,434.2,46.24,435.53Zm1.62,5.13c-.66-.91-.47-2.46.55-4.39a46,46,0,0,0,12.46,1.59H61C54.85,441.46,49.34,442.68,47.86,440.66Zm28.06-9.14c0,2.17-4.44,4.17-10.54,4.84l.11-.08a48.27,48.27,0,0,0,8.12-7.42C75.1,429.67,75.92,430.61,75.92,431.52ZM75,420.79c.67.92.46,2.51-.6,4.49a42.19,42.19,0,0,0-12.15-1.9C68.19,420,73.55,418.82,75,420.79Zm-14.12,5.65a32,32,0,0,1,11.49,1.84,41.17,41.17,0,0,1-7.57,7.05c-.58.42-1.16.83-1.73,1.21q-1.08.06-2.19.06a31.9,31.9,0,0,1-11.54-1.87,36.63,36.63,0,0,1,8.11-8.16C58.56,426.48,59.71,426.44,60.87,426.44Zm-7.07.61a40.09,40.09,0,0,0-6.37,6.69,3,3,0,0,1-1.6-2.22C45.83,429.68,49,427.94,53.8,427.05Z" style="fill:#03233a;stroke:#03233a;stroke-miterlimit:10"/></g></g></svg>